<svg width="75" height="75" viewBox="0 0 75 75" fill="none" xmlns="http://www.w3.org/2000/svg">
<g clip-path="url(#clip0_42_77)">
<path d="M37.5 75C58.2107 75 75 58.2107 75 37.5C75 16.7893 58.2107 0 37.5 0C16.7893 0 0 16.7893 0 37.5C0 58.2107 16.7893 75 37.5 75Z" fill="#2FC7F7"/>
<path d="M64.2334 36.553H62.6221V34.9417H62.1892V36.9873H64.2334V36.553ZM62.4075 39.7705C61.7711 39.7705 61.149 39.5818 60.6199 39.2283C60.0908 38.8747 59.6784 38.3722 59.4349 37.7843C59.1913 37.1964 59.1276 36.5494 59.2518 35.9253C59.3759 35.3012 59.6824 34.7279 60.1323 34.2779C60.5823 33.8279 61.1556 33.5215 61.7798 33.3973C62.4039 33.2732 63.0508 33.3369 63.6388 33.5804C64.2267 33.8239 64.7292 34.2363 65.0827 34.7655C65.4363 35.2946 65.625 35.9166 65.625 36.553C65.6204 37.4049 65.2799 38.2206 64.6775 38.8231C64.0751 39.4255 63.2594 39.7659 62.4075 39.7705ZM62.4075 33.9236C61.8874 33.9236 61.3791 34.0778 60.9467 34.3668C60.5143 34.6557 60.1772 35.0663 59.9782 35.5468C59.7792 36.0272 59.7271 36.5559 59.8286 37.066C59.9301 37.576 60.1805 38.0446 60.5482 38.4123C60.9159 38.78 61.3844 39.0304 61.8945 39.1319C62.4046 39.2333 62.9332 39.1813 63.4137 38.9823C63.8942 38.7832 64.3048 38.4462 64.5937 38.0138C64.8827 37.5814 65.0369 37.0731 65.0369 36.553C65.0372 36.2076 64.9693 35.8656 64.8373 35.5464C64.7053 35.2273 64.5116 34.9373 64.2674 34.6931C64.0232 34.4489 63.7332 34.2552 63.414 34.1232C63.0949 33.9911 62.7528 33.9233 62.4075 33.9236ZM56.22 38.2859V33.1502H55.1375L51.0227 38.502V39.523H54.7354V41.565H56.22V39.523H57.4578V38.2852L56.22 38.2859ZM54.7354 37.0796V38.2544H53.7451C53.436 38.2544 52.8787 38.2852 52.6934 38.2852L54.7969 35.439C54.7969 35.6866 54.7354 36.4292 54.7354 37.0789V37.0796ZM45.052 41.5342H50.8381V40.2657H47.001C47.5269 38.1621 50.7444 37.6978 50.7444 35.3467C50.7444 34.0782 49.8779 33.1495 48.0835 33.1495C47.1155 33.1573 46.1627 33.3902 45.3003 33.8299L45.7031 35.0098C46.322 34.7315 47.0024 34.4532 47.8374 34.4532C48.5178 34.4532 49.1367 34.7315 49.1367 35.5049C49.1667 37.2334 45.3926 37.3572 45.052 41.5342ZM39.4526 38.0999L36.9778 34.6971H38.7722L40.3835 36.9244L42.0234 34.6971H43.8179L41.3086 38.0999L43.8457 41.5342H42.0513L40.4114 39.2447L38.7407 41.5342H36.9463L39.4526 38.0999ZM34.0386 32.562C34.0386 32.2831 34.1494 32.0156 34.3466 31.8183C34.5439 31.6211 34.8114 31.5103 35.0903 31.5103C35.3693 31.5103 35.6368 31.6211 35.834 31.8183C36.0313 32.0156 36.1421 32.2831 36.1421 32.562C36.1421 33.1187 35.6777 33.583 35.0596 33.583C34.4414 33.583 34.0386 33.1502 34.0386 32.562ZM34.2239 34.6963H35.9561V41.5335H34.2246L34.2239 34.6963ZM28.8406 34.6963H30.3252L30.5105 35.4698C31.1294 34.8509 31.686 34.5418 32.3979 34.5418C32.7373 34.543 33.0694 34.6395 33.3567 34.8201L32.7393 36.2747C32.5069 36.131 32.239 36.0549 31.9658 36.055C31.5015 36.055 31.1309 36.2403 30.5742 36.7354V41.565H28.8413L28.8406 34.6963ZM19.7146 32.562C19.7134 32.4236 19.7398 32.2863 19.7923 32.1582C19.8447 32.03 19.9221 31.9136 20.02 31.8157C20.1179 31.7178 20.2344 31.6404 20.3625 31.588C20.4906 31.5355 20.6279 31.5091 20.7664 31.5103C21.3523 31.5103 21.8489 31.9432 21.8489 32.562C21.8489 33.1187 21.3845 33.583 20.7664 33.583C20.1482 33.583 19.7146 33.1502 19.7146 32.562ZM19.8999 34.6963H21.6321V41.5335H19.9006L19.8999 34.6963ZM23.9502 39.8636V36.055H22.7124V34.6971H23.9502V33.1194L25.6824 32.6243V34.6971H27.7588L27.3259 36.0586H25.686V39.4278C25.686 40.0774 25.9058 40.2942 26.3665 40.2942C26.7427 40.2854 27.1082 40.167 27.4182 39.9537L27.9441 41.1292C27.449 41.4698 26.614 41.6551 25.9329 41.6551C24.6958 41.6888 23.9502 41.0076 23.9502 39.8636ZM12.0117 32.0069H14.7949C16.8369 32.0069 17.7649 33.1824 17.7649 34.4202C17.7649 35.2552 17.3628 35.9978 16.6201 36.3977V36.4285C17.7341 36.7068 18.4146 37.604 18.4146 38.7181C18.4146 40.2027 17.3005 41.5335 15.0732 41.5335H12.0117V32.0069ZM14.5796 35.9978C15.5383 35.9978 16.0642 35.472 16.0642 34.7293C16.0642 34.0181 15.5999 33.4607 14.5796 33.4607H13.7739V35.9978H14.5796ZM14.8579 40.1126C16.0027 40.1126 16.6523 39.6797 16.6523 38.721C16.6523 37.9153 16.0334 37.4217 15.0747 37.4217H13.7754V40.1133L14.8579 40.1126Z" fill="white"/>
</g>
<defs>
<clipPath id="clip0_42_77">
<rect width="75" height="75" fill="white"/>
</clipPath>
</defs>
</svg>
