<svg width="75" height="75" viewBox="0 0 75 75" fill="none" xmlns="http://www.w3.org/2000/svg">
<path d="M70.7211 21.9928C70.7206 20.735 70.4516 19.6235 69.9076 18.6696C69.3732 17.7316 68.5729 16.9454 67.4995 16.3238C58.6388 11.2147 49.7696 6.12119 40.9117 1.00687C38.5237 -0.371777 36.2084 -0.321517 33.838 1.07692C30.3112 3.15687 12.6537 13.2733 7.39195 16.3209C5.22502 17.5754 4.17059 19.4952 4.17007 21.9905C4.16669 32.2652 4.17007 42.5397 4.16669 52.8147C4.16669 54.0449 4.42476 55.1347 4.94481 56.0743C5.47945 57.0407 6.29091 57.8485 7.38908 58.4842C12.6511 61.5319 30.311 71.6475 33.837 73.728C36.2084 75.1272 38.5237 75.1772 40.9125 73.798C49.7706 68.6834 58.6404 63.5902 67.5024 58.4811C68.6005 57.8457 69.412 57.0373 69.9466 56.0717C70.4659 55.1321 70.7245 54.0423 70.7245 52.8118C70.7245 52.8118 70.7245 32.2678 70.7211 21.9928Z" fill="#A179DC"/>
<path d="M37.5474 37.3025L4.94482 56.0744C5.47946 57.0408 6.29092 57.8486 7.38909 58.4843C12.6511 61.5319 30.311 71.6475 33.837 73.728C36.2084 75.1272 38.5237 75.1772 40.9125 73.7981C49.7706 68.6835 58.6404 63.5903 67.5024 58.4811C68.6005 57.8457 69.412 57.0374 69.9466 56.0718L37.5474 37.3025Z" fill="#280068"/>
<path d="M70.7211 21.9929C70.7206 20.735 70.4516 19.6236 69.9076 18.6697L37.5474 37.3025L69.9466 56.0718C70.4659 55.1322 70.724 54.0423 70.7245 52.8119C70.7245 52.8119 70.7245 32.2679 70.7211 21.9929Z" fill="#390091"/>
<path d="M56.7428 30.2849V33.7937H60.2516V30.2849H62.006V33.7937H65.5148V35.5481H62.006V39.0568H65.5148V40.8112H62.006V44.32H60.2516V40.8112H56.7428V44.32H54.9885V40.8112H51.4797V39.0568H54.9885V35.5481H51.4797V33.7937H54.9885V30.2849H56.7428ZM60.2516 35.5481H56.7428V39.0568H60.2516V35.5481Z" fill="white"/>
<path d="M37.6189 12.6631C46.771 12.6631 54.7614 17.6335 59.0413 25.0214L58.9995 24.9503L48.2317 31.1504C46.1101 27.5583 42.2209 25.1342 37.7595 25.0843L37.6189 25.0835C30.8154 25.0835 25.2996 30.599 25.2996 37.4025C25.2996 39.6274 25.8928 41.713 26.9244 43.5144C29.0478 47.2215 33.0397 49.7218 37.6189 49.7218C42.2264 49.7218 46.241 47.1897 48.3537 43.4429L48.3024 43.5329L59.0541 49.7615C54.8212 57.0869 46.9402 62.042 37.8945 62.1407L37.6189 62.1423C28.4381 62.1423 20.4249 57.1413 16.1558 49.7142C14.0717 46.0885 12.8792 41.885 12.8792 37.4025C12.8792 23.7395 23.9553 12.6631 37.6189 12.6631Z" fill="white"/>
</svg>
