<svg width="75" height="75" viewBox="0 0 75 75" fill="none" xmlns="http://www.w3.org/2000/svg">
<path fill-rule="evenodd" clip-rule="evenodd" d="M37.5 37.5C37.5 32.3224 41.6974 28.125 46.875 28.125C52.0526 28.125 56.25 32.3224 56.25 37.5C56.25 42.6776 52.0526 46.875 46.875 46.875C41.6974 46.875 37.5 42.6776 37.5 37.5Z" fill="#1ABCFE"/>
<path fill-rule="evenodd" clip-rule="evenodd" d="M18.75 56.25C18.75 51.0724 22.9473 46.875 28.125 46.875H37.5V56.25C37.5 61.4276 33.3026 65.625 28.125 65.625C22.9473 65.625 18.75 61.4276 18.75 56.25Z" fill="#0ACF83"/>
<path fill-rule="evenodd" clip-rule="evenodd" d="M37.5 9.375V28.125H46.875C52.0526 28.125 56.25 23.9276 56.25 18.75C56.25 13.5723 52.0526 9.375 46.875 9.375H37.5Z" fill="#FF7262"/>
<path fill-rule="evenodd" clip-rule="evenodd" d="M18.75 18.75C18.75 23.9276 22.9473 28.125 28.125 28.125H37.5V9.375H28.125C22.9473 9.375 18.75 13.5723 18.75 18.75Z" fill="#F24E1E"/>
<path fill-rule="evenodd" clip-rule="evenodd" d="M18.75 37.5C18.75 42.6776 22.9473 46.875 28.125 46.875H37.5V28.125H28.125C22.9473 28.125 18.75 32.3224 18.75 37.5Z" fill="#A259FF"/>
</svg>
