<svg width="75" height="75" viewBox="0 0 75 75" fill="none" xmlns="http://www.w3.org/2000/svg">
<path d="M13.8328 63.7523L8.56641 4.6875H66.4336L61.1602 63.743L37.4648 70.3125L13.8328 63.7523Z" fill="#E44F26"/>
<path d="M37.5 65.2923L56.6484 59.9837L61.1531 9.51807H37.5V65.2923Z" fill="#F1662A"/>
<path d="M37.5 31.4228H27.9141L27.2531 24.0048H37.5V16.7603H37.4742H19.3359L19.5094 18.7056L21.2883 38.6673H37.5V31.4228Z" fill="#EBEBEB"/>
<path d="M37.5 50.2358L37.4672 50.2452L29.4 48.0679L28.8844 42.2905H24.9633H21.6117L22.6266 53.6624L37.4672 57.7827L37.5 57.7733V50.2358Z" fill="#EBEBEB"/>
<path d="M37.4742 31.4226V38.6671H46.3945L45.5555 48.0632L37.4742 50.2429V57.7804L52.3266 53.6625L52.4344 52.439L54.1359 33.3679L54.3141 31.4226H52.3617H37.4742Z" fill="white"/>
<path d="M37.4742 16.7603V21.2603V23.9884V24.0048H54.9492H54.9727L55.118 22.3782L55.4484 18.7056L55.6219 16.7603H37.4742Z" fill="white"/>
</svg>
