<svg width="75" height="75" viewBox="0 0 75 75" fill="none" xmlns="http://www.w3.org/2000/svg">
<path d="M37.6165 19.7827C53.0573 7.79548 45.1327 0 45.1327 0C46.312 12.3923 32.3742 15.3184 28.638 23.8341C26.0887 29.6449 30.3839 34.7327 37.6113 41.1455C36.9724 39.7252 35.9869 38.3452 34.9894 36.948C31.5865 32.1827 28.0418 27.2184 37.6165 19.7827Z" fill="#E76F00"/>
<path d="M40.0816 43.7742C40.0816 43.7742 44.7269 40.0263 41.0482 35.8613C28.5776 21.7309 54.6874 15.3184 54.6874 15.3184C38.7462 22.9981 41.126 27.5564 45.1329 33.0942C49.4229 39.0324 40.0816 43.7742 40.0816 43.7742Z" fill="#E76F00"/>
<path d="M53.7586 54.9507C68.0679 47.6386 61.4519 40.6121 56.8341 41.5587C55.702 41.7903 55.1974 41.9911 55.1974 41.9911C55.1974 41.9911 55.6176 41.3438 56.4201 41.0635C65.5559 37.9053 72.5817 50.3787 53.471 55.3191C53.471 55.3191 53.6925 55.1246 53.7586 54.9507Z" fill="#5382A1"/>
<path d="M23.9836 45.6958C15.0308 44.5201 28.8926 41.2825 28.8926 41.2825C28.8926 41.2825 23.5095 40.9255 16.8889 44.0725C9.06041 47.7965 36.2534 49.49 50.3297 45.8495C51.7931 44.8668 53.8158 44.015 53.8158 44.015C53.8158 44.015 48.0556 45.0266 42.319 45.5026C35.2997 46.0808 27.7638 46.1936 23.9836 45.6958Z" fill="#5382A1"/>
<path d="M27.39 52.6775C22.3974 52.1699 25.6664 49.7903 25.6664 49.7903C12.7476 54.0067 32.8542 58.7882 50.906 53.5972C48.9872 52.9321 47.767 51.7154 47.767 51.7154C38.9444 53.3861 33.8461 53.3326 27.39 52.6775Z" fill="#5382A1"/>
<path d="M29.5652 60.2323C24.5766 59.6684 27.491 58.0017 27.491 58.0017C15.7639 61.2239 34.624 67.8808 49.5546 61.5883C47.1091 60.6532 45.3581 59.5737 45.3581 59.5737C38.6979 60.813 35.6088 60.9103 29.5652 60.2323Z" fill="#5382A1"/>
<path d="M60.7938 64.0753C60.7938 64.0753 62.9505 65.8228 58.4184 67.1746C49.8002 69.742 22.5491 70.5173 14.9788 67.2771C12.2574 66.1129 17.3607 64.4974 18.966 64.1582C20.6401 63.8013 21.5969 63.8679 21.5969 63.8679C18.5705 61.7714 2.03552 67.9844 13.1979 69.7638C43.6395 74.6184 68.6899 67.5775 60.7938 64.0753Z" fill="#5382A1"/>
<path d="M65.625 67.8936C65.1256 74.2845 44.0337 75.6289 30.2986 74.7643C21.3383 74.1992 19.5425 72.7871 19.5162 72.7664C28.092 74.1568 42.5506 74.4099 54.2738 72.2403C64.6648 70.3163 65.625 67.8936 65.625 67.8936Z" fill="#5382A1"/>
</svg>
