<svg width="75" height="75" viewBox="0 0 75 75" fill="none" xmlns="http://www.w3.org/2000/svg">
<path d="M73.1193 53.4125C73.1193 53.4125 63.8096 78.5179 31.7588 72.6734C31.2545 72.5795 30.7708 72.4042 30.281 72.2561C30.1664 72.2226 30.0507 72.1859 29.9361 72.1531C29.4549 72.0034 28.9786 71.8499 28.5051 71.6848C28.4509 71.6659 28.3992 71.6482 28.3443 71.6287C27.913 71.4771 27.4841 71.3161 27.0608 71.1535C26.9499 71.1103 26.8396 71.0683 26.7293 71.0231C26.2731 70.843 25.8193 70.6546 25.3704 70.4579C25.2876 70.4214 25.2078 70.3848 25.1237 70.3477C24.7307 70.173 24.3426 69.9919 23.9578 69.8079C23.8579 69.7572 23.7574 69.7104 23.6568 69.6629C23.602 69.6355 23.543 69.6081 23.4869 69.5801C23.2384 69.4559 22.9958 69.3269 22.7511 69.1987C22.5623 69.1013 22.3704 69.0063 22.1827 68.9057C21.8361 68.7169 21.4944 68.525 21.1544 68.3289C21.0283 68.2569 20.901 68.1875 20.776 68.115C20.3143 67.8434 19.8574 67.5613 19.4073 67.2761C19.28 67.1945 19.154 67.1081 19.0285 67.0238C18.7349 66.8338 18.4412 66.6437 18.1537 66.4452C18.1232 66.4244 18.094 66.4026 18.0642 66.3812C17.9527 66.3056 17.8468 66.2283 17.7359 66.1479C17.4325 65.9371 17.1322 65.7214 16.835 65.5021C16.6913 65.3937 16.548 65.2848 16.4055 65.1756C16.1363 64.9703 15.8684 64.7601 15.6026 64.5481C15.4705 64.4422 15.3365 64.3375 15.2043 64.2302C14.8803 63.9633 14.5573 63.6916 14.2412 63.4175C14.1814 63.3652 14.1182 63.314 14.0572 63.2592C14.0511 63.2567 14.0468 63.2519 14.0401 63.2463C13.6813 62.9319 13.3292 62.6097 12.9801 62.2808C12.8748 62.1846 12.7699 62.0816 12.664 61.9805C12.4033 61.73 12.145 61.4778 11.891 61.222C11.7855 61.1185 11.6814 61.0137 11.5803 60.9088C11.2521 60.5713 10.9279 60.2334 10.6112 59.8878C10.5996 59.8722 10.588 59.8629 10.5741 59.8477C10.5686 59.8417 10.5606 59.8336 10.5552 59.8269C10.2312 59.4699 9.91318 59.105 9.6019 58.739C9.51475 58.636 9.42715 58.5307 9.34116 58.4265C9.10913 58.1469 8.88061 57.868 8.65649 57.5853C8.56333 57.4676 8.47016 57.349 8.37817 57.2308C8.12666 56.906 7.87808 56.5789 7.6374 56.2462C7.59228 56.1841 7.54424 56.1232 7.50088 56.0623C7.49165 56.052 7.48389 56.0409 7.47773 56.0306C7.19883 55.6449 6.92959 55.2521 6.66518 54.8586C6.58301 54.7379 6.50566 54.6137 6.42641 54.4893C6.23511 54.1982 6.04746 53.9069 5.86597 53.6122C5.77104 53.4611 5.68081 53.3095 5.5894 53.1576C5.42432 52.8824 5.26289 52.607 5.1063 52.3292C5.0168 52.1721 4.92847 52.0186 4.84189 51.8571C4.7937 51.7719 4.74141 51.684 4.69453 51.5946C4.61221 51.4458 4.53794 51.2907 4.45752 51.1389C4.3333 50.9007 4.20718 50.6614 4.08721 50.4189C-0.974854 40.2978 -1.80088 27.9052 4.82666 18.3794L9.99961 11.8186C4.16323 23.0989 6.78633 36.8349 14.0877 46.7932C14.3514 47.1557 14.6213 47.5133 14.8972 47.8707C14.9826 47.9785 15.0683 48.0871 15.1537 48.1906C15.3832 48.483 15.6177 48.7717 15.8547 49.0575C15.9401 49.158 16.0235 49.2566 16.1106 49.3602C16.4275 49.7343 16.7515 50.1058 17.0842 50.4682C17.1 50.4857 17.1152 50.5017 17.1305 50.5187C17.4448 50.8618 17.7652 51.2003 18.0911 51.5343C18.1922 51.6365 18.2952 51.7377 18.3981 51.8401C18.6541 52.1013 18.9154 52.3549 19.181 52.607C19.2814 52.7069 19.3825 52.8031 19.4868 52.9024C19.8456 53.2363 20.2074 53.5682 20.5759 53.8924C20.6143 53.9259 20.6539 53.9568 20.6892 53.9879C21.0303 54.2845 21.3757 54.5734 21.7254 54.8609C21.8473 54.9603 21.9715 55.0594 22.0957 55.1582C22.3704 55.3792 22.6482 55.5944 22.9279 55.8081C23.0613 55.9105 23.1983 56.0146 23.3367 56.1169C23.6407 56.3423 23.9477 56.5641 24.2578 56.7834C24.3631 56.8546 24.4655 56.9321 24.5722 57.0039C24.8927 57.2256 25.2192 57.4413 25.5469 57.6521C25.6699 57.7338 25.7918 57.819 25.916 57.8983C26.3681 58.1845 26.8249 58.4659 27.2867 58.7376C27.4055 58.8059 27.5243 58.8698 27.6412 58.9357C27.9896 59.1373 28.3387 59.3357 28.6944 59.5259C28.8869 59.633 29.0849 59.7299 29.2797 59.8329C29.5709 59.9828 29.8622 60.1351 30.1569 60.2788C30.2684 60.3336 30.3768 60.3849 30.4859 60.4366C30.8618 60.6175 31.2388 60.7918 31.6201 60.9646C31.7104 61.0038 31.7979 61.0445 31.8888 61.0834C32.3329 61.2778 32.7817 61.4643 33.2344 61.6426C33.3507 61.6889 33.4671 61.7334 33.584 61.7798C33.9958 61.9394 34.4106 62.0942 34.8303 62.2421C34.8955 62.2653 34.9607 62.289 35.024 62.3122C35.4918 62.4731 35.9626 62.6265 36.4373 62.7715C36.5584 62.8093 36.6797 62.8459 36.8039 62.8824C37.2899 63.0261 37.773 63.1815 38.2714 63.2943C51.4217 66.2872 65.3002 63.5995 73.1193 53.4125ZM26.7246 37.318C27.4434 38.3469 28.239 39.5718 29.1923 40.3987C29.5371 40.7792 29.8989 41.1501 30.2675 41.515C30.3601 41.61 30.4557 41.7014 30.5514 41.7945C30.9083 42.1418 31.2738 42.4836 31.6491 42.8155C31.6649 42.8271 31.679 42.8431 31.6942 42.854C31.6985 42.8589 31.7021 42.8601 31.7052 42.8649C32.122 43.2292 32.5521 43.5808 32.9881 43.926C33.0851 44.0004 33.1812 44.0778 33.2793 44.1534C33.7173 44.489 34.164 44.8191 34.622 45.1333C34.6361 45.143 34.6469 45.153 34.661 45.1626C34.8625 45.3027 35.0685 45.4331 35.2726 45.5671C35.3713 45.6305 35.4645 45.6986 35.563 45.7584C35.8907 45.9686 36.2216 46.1727 36.5584 46.3688C36.606 46.3981 36.6523 46.4224 36.6992 46.4498C36.9885 46.6168 37.2839 46.7819 37.5788 46.9414C37.6811 46.9987 37.7859 47.0498 37.8907 47.1046C38.0941 47.2106 38.2988 47.3196 38.5059 47.4226C38.537 47.4373 38.5693 47.4518 38.5992 47.4646C39.0214 47.6724 39.4471 47.8733 39.8827 48.0622C39.9753 48.1036 40.0715 48.1401 40.166 48.1792C40.5139 48.3266 40.8647 48.471 41.2175 48.6062C41.3672 48.6629 41.5191 48.7171 41.6676 48.7713C41.9886 48.8907 42.3097 48.9992 42.6337 49.1076C42.7806 49.1543 42.9243 49.2025 43.0711 49.2477C43.5316 49.3902 43.9872 49.5717 44.4678 49.6509C69.214 53.7512 74.9268 34.6981 74.9268 34.6981C69.7764 42.115 59.8033 45.6538 49.1606 42.8918C48.6885 42.7675 48.2227 42.6317 47.7602 42.4861C47.6175 42.4433 47.4787 42.3972 47.3379 42.3501C47.009 42.2435 46.6818 42.1303 46.3573 42.0121C46.2092 41.9579 46.0607 41.9037 45.9149 41.8476C45.5597 41.711 45.2083 41.5698 44.8605 41.4225C44.7649 41.381 44.6692 41.3444 44.5761 41.3018C44.1394 41.1115 43.7093 40.9117 43.2853 40.702C43.0666 40.5953 42.8527 40.4825 42.6371 40.3719C42.5127 40.3079 42.3879 40.2437 42.2637 40.1797C41.9883 40.0301 41.7142 39.875 41.4442 39.7177C41.3802 39.6808 41.3133 39.6458 41.2481 39.6071C40.9137 39.4109 40.5835 39.2089 40.2564 39.0015C40.1558 38.9374 40.0583 38.8675 39.9579 38.8014C39.7415 38.6617 39.5266 38.52 39.3145 38.3763C38.8589 38.062 38.4154 37.7319 37.9774 37.3981C37.8763 37.3186 37.7758 37.2409 37.6758 37.1614C33.0182 33.483 29.3262 28.4568 27.5692 22.7576C25.7301 16.8466 26.1268 10.2116 29.3145 4.827L25.3982 10.355C20.606 17.2522 20.8661 26.4849 24.6044 33.7793C25.2322 35.0023 25.937 36.1883 26.7246 37.318ZM52.8076 28.785C53.0117 28.8611 53.2151 28.9287 53.4215 28.9985C53.5118 29.0262 53.6019 29.0573 53.6927 29.0841C53.9839 29.1758 54.2732 29.2821 54.5742 29.3387C68.2389 31.9788 71.9443 22.3266 72.9312 20.9062C69.6844 25.5805 64.2293 26.7025 57.5341 25.0782C57.006 24.9491 56.4249 24.7581 55.9143 24.5778C55.2606 24.3447 54.618 24.0792 53.9918 23.7786C52.8022 23.2074 51.6703 22.5146 50.619 21.7212C44.6291 17.1759 40.9084 8.50522 44.8167 1.44409L42.7017 4.35928C39.8764 8.51738 39.5993 13.6812 41.5589 18.274C43.6264 23.1481 47.863 26.9724 52.8076 28.785Z" fill="#21609B"/>
</svg>
