<svg width="75" height="75" viewBox="0 0 75 75" fill="none" xmlns="http://www.w3.org/2000/svg">
<g clip-path="url(#clip0_41_50)">
<path d="M69.0376 57.4839C64.9599 57.3822 61.7997 57.7902 59.1491 58.9113C58.3845 59.217 57.1611 59.2173 57.0591 60.1856C57.4671 60.5936 57.518 61.2562 57.8748 61.8167C58.4869 62.8358 59.5568 64.2124 60.5254 64.9261C61.5956 65.7415 62.6662 66.5569 63.7873 67.2707C65.7753 68.4941 68.0182 69.2075 69.955 70.4309C71.0767 71.144 72.1975 72.062 73.3189 72.8266C73.8798 73.234 74.2363 73.8968 74.9501 74.1517V73.9988C74.5932 73.54 74.4912 72.8774 74.1347 72.3677C73.6253 71.858 73.1152 71.3991 72.6055 70.8894C71.1273 68.9018 69.2924 67.1686 67.3045 65.7415C65.6737 64.6201 62.1054 63.091 61.4428 61.205C61.4428 61.205 61.3916 61.1542 61.3408 61.1033C62.4622 61.0013 63.7873 60.5936 64.8579 60.2876C66.5911 59.8287 68.171 59.9307 69.955 59.4722C70.7704 59.2682 71.5861 59.0133 72.4015 58.7585V58.2999C71.4844 57.3822 70.8216 56.1591 69.853 55.2925C67.2536 53.0494 64.399 50.858 61.4428 49.0232C59.8625 48.0037 57.8237 47.3409 56.1417 46.4746C55.5303 46.1683 54.5106 46.0158 54.1541 45.506C53.2363 44.3846 52.7266 42.9067 52.0641 41.5812C50.5864 38.7775 49.1586 35.6687 47.8844 32.7125C46.9673 30.7245 46.4064 28.7365 45.285 26.9017C40.0351 18.2367 34.3263 12.9868 25.5593 7.83851C23.6733 6.76825 21.4308 6.30939 19.0351 5.74884C17.7611 5.69768 16.4865 5.59599 15.2123 5.54483C14.3969 5.18797 13.5811 4.21972 12.8674 3.76085C9.96266 1.92571 2.46956 -2.04963 0.328728 3.2003C-1.04755 6.51341 2.36756 9.77534 3.53981 11.4576C4.4067 12.6299 5.5278 13.955 6.13951 15.2804C6.49638 16.1464 6.59806 17.0644 6.95492 17.9818C7.77064 20.224 8.53488 22.722 9.60546 24.8121C10.1663 25.8823 10.7777 27.0037 11.4914 27.972C11.8991 28.5325 12.6125 28.7877 12.7657 29.7051C12.0523 30.7245 12.0012 32.2536 11.5931 33.5279C9.75831 39.2875 10.472 46.4235 13.0714 50.654C13.8868 51.9279 15.8239 54.732 18.4234 53.6614C20.717 52.744 20.2073 49.8386 20.8699 47.29C21.0231 46.678 20.921 46.2706 21.2267 45.8629C21.227 45.9137 21.2267 45.9649 21.2267 45.9649C21.9405 47.392 22.6539 48.7683 23.3164 50.1954C24.8967 52.6928 27.6489 55.2925 29.9426 57.0256C31.1664 57.9427 32.1346 59.523 33.6637 60.0839V59.9307H33.5617C33.2557 59.4718 32.7972 59.2682 32.3895 58.9113C31.472 57.9939 30.4523 56.8725 29.7389 55.8531C27.5984 52.9985 25.7121 49.8386 24.0301 46.5763C23.2147 44.9964 22.501 43.2632 21.8385 41.6832C21.5324 41.0712 21.5324 40.1541 21.0227 39.8484C20.2582 40.9695 19.1371 41.9381 18.5762 43.3144C17.6083 45.5061 17.5059 48.2075 17.1491 51.0108C16.9454 51.062 17.0471 51.0108 16.9451 51.1128C15.3143 50.7048 14.7534 49.0232 14.1417 47.5957C12.6125 43.9769 12.3577 38.1661 13.6831 33.9868C14.04 32.9162 15.5691 29.5523 14.9574 28.5328C14.6517 27.5643 13.632 27.0037 13.0714 26.2392C12.4088 25.2706 11.6951 24.0475 11.2366 22.9769C10.0132 20.1227 9.40144 16.9624 8.07634 14.1079C7.46462 12.7824 6.39437 11.4065 5.5278 10.1834C4.55955 8.80709 3.48897 7.83851 2.7244 6.20738C2.46986 5.64683 2.11268 4.72942 2.52038 4.1177C2.62239 3.71001 2.82608 3.55716 3.2341 3.45515C3.89666 2.89428 5.78264 3.608 6.44518 3.91369C8.33117 4.67793 9.91114 5.39197 11.4914 6.46223C12.2048 6.97194 12.9694 7.94051 13.8868 8.19537H14.9574C16.5885 8.55191 18.4233 8.29737 19.9524 8.75592C22.6542 9.62216 25.1004 10.8968 27.2924 12.273C33.9697 16.5035 39.4742 22.5183 43.1953 29.7051C43.807 30.8771 44.0616 31.948 44.6225 33.1711C45.693 35.6688 47.0181 38.2173 48.0884 40.6638C49.1587 43.0592 50.1781 45.5061 51.7072 47.4941C52.4721 48.564 55.53 49.1249 56.9063 49.6857C57.9257 50.1443 59.506 50.5523 60.4234 51.1129C62.1562 52.1828 63.8893 53.4065 65.5205 54.5788C66.3362 55.1902 68.8844 56.4648 69.0376 57.4839Z" fill="#00546B"/>
<path d="M17.0468 13.1899C16.1803 13.1899 15.5689 13.2923 14.9572 13.4451C14.9572 13.4451 14.9572 13.4963 14.9572 13.5471H15.0592C15.4672 14.3625 16.1803 14.9234 16.69 15.6368C17.098 16.4522 17.4545 17.2679 17.8626 18.0837C17.9134 18.0325 17.9642 17.9816 17.9642 17.9816C18.6783 17.4716 19.0348 16.6562 19.0348 15.4331C18.7288 15.0762 18.678 14.7194 18.4231 14.3625C18.1174 13.8525 17.4545 13.598 17.0468 13.1899Z" fill="#00546B"/>
</g>
<defs>
<clipPath id="clip0_41_50">
<rect width="75" height="75" fill="white"/>
</clipPath>
</defs>
</svg>
