<svg width="75" height="75" viewBox="0 0 75 75" fill="none" xmlns="http://www.w3.org/2000/svg">
<path d="M17.6968 26.6691H31.8425V27.7935H18.9935V36.2554H31.0763V37.3798H18.9935V46.6702H31.9899V47.7945H17.6968V26.6691ZM33.1097 26.6691H34.6127L41.273 35.9596L48.0806 26.6691L57.3401 14.8682L42.1276 36.9359L49.9667 47.7945H48.4048L41.273 37.9123L34.1117 47.7945H32.5793L40.4773 36.9359L33.1097 26.6691ZM50.5266 27.7935V26.6691H66.6468V27.7935H59.2203V47.7945H57.9236V27.7935H50.5266ZM0 26.6691H1.62086L23.9716 60.1148L14.7351 47.7945L1.35563 28.2669L1.29669 47.7945H0V26.6691ZM66.5162 46.3309C66.2512 46.3309 66.0526 46.1256 66.0526 45.8603C66.0526 45.5951 66.2512 45.3898 66.5162 45.3898C66.7842 45.3898 66.9798 45.5951 66.9798 45.8603C66.9798 46.1256 66.7842 46.3309 66.5162 46.3309ZM67.7903 45.093H68.4842C68.4936 45.4688 68.768 45.7214 69.1717 45.7214C69.6227 45.7214 69.8782 45.4498 69.8782 44.9414V41.7203H70.5846V44.9445C70.5846 45.8603 70.0548 46.3877 69.178 46.3877C68.3549 46.3877 67.7903 45.8761 67.7903 45.093ZM71.5087 45.0519H72.2088C72.2688 45.4845 72.6914 45.7593 73.3001 45.7593C73.8678 45.7593 74.2841 45.4656 74.2841 45.0614C74.2841 44.714 74.0192 44.5056 73.4168 44.3635L72.8302 44.2214C72.007 44.0287 71.6317 43.6308 71.6317 42.9613C71.6317 42.1497 72.294 41.6097 73.2875 41.6097C74.2115 41.6097 74.8865 42.1497 74.9275 42.9171H74.2399C74.1737 42.4971 73.8078 42.235 73.278 42.235C72.7198 42.235 72.3476 42.5034 72.3476 42.914C72.3476 43.2392 72.5873 43.4256 73.1802 43.5645L73.6817 43.6877C74.6152 43.9056 75 44.2845 75 44.9698C75 45.8414 74.3251 46.3877 73.2465 46.3877C72.2372 46.3877 71.5592 45.8667 71.5087 45.0519Z" fill="white"/>
</svg>
