<svg width="108" height="108" viewBox="0 0 108 108" fill="none" xmlns="http://www.w3.org/2000/svg">
<path d="M54 78.8568C80.0955 78.8568 101.25 67.728 101.25 53.9999C101.25 40.2719 80.0955 29.1431 54 29.1431C27.9045 29.1431 6.75 40.2719 6.75 53.9999C6.75 67.728 27.9045 78.8568 54 78.8568Z" fill="url(#paint0_radial_40_2)"/>
<path d="M54 77.0108C79.0759 77.0108 99.4039 66.7085 99.4039 54C99.4039 41.2915 79.0759 30.9893 54 30.9893C28.9241 30.9893 8.59613 41.2915 8.59613 54C8.59613 66.7085 28.9241 77.0108 54 77.0108Z" fill="#6280B6"/>
<path d="M63.1969 61.425L65.448 49.8352C65.7687 48.8433 65.8215 47.7843 65.601 46.7655C65.3805 45.7466 64.8946 44.8041 64.1925 44.0336C62.2327 42.642 59.8331 42.0121 57.4425 42.2617H53.5511L54.6683 36.5242C54.6886 36.4174 54.6851 36.3074 54.6581 36.2021C54.6311 36.0967 54.5811 35.9986 54.5118 35.9148C54.4425 35.831 54.3555 35.7635 54.2572 35.7172C54.1588 35.6709 54.0514 35.6468 53.9426 35.6467H48.5426C48.3712 35.6467 48.205 35.7062 48.0726 35.8152C47.9403 35.9242 47.8499 36.0758 47.817 36.2441L45.4241 48.5494C45.24 47.2337 44.6811 45.9988 43.8143 44.9921C42.8491 44.0255 41.6848 43.2811 40.4024 42.8107C39.12 42.3403 37.7505 42.1553 36.3892 42.2685H25.9875C25.816 42.2684 25.6499 42.328 25.5175 42.437C25.3851 42.546 25.2948 42.6976 25.2619 42.8659L20.4221 67.7733C20.4018 67.8802 20.4052 67.9902 20.4323 68.0955C20.4593 68.2009 20.5093 68.2989 20.5786 68.3827C20.6479 68.4666 20.7348 68.534 20.8332 68.5804C20.9316 68.6267 21.039 68.6508 21.1478 68.6508H26.5579C26.7293 68.6509 26.8955 68.5913 27.0279 68.4824C27.1602 68.3734 27.2506 68.2218 27.2835 68.0535L28.4546 62.0291H32.5046C34.2928 62.0769 36.0777 61.8492 37.7966 61.3541C39.246 60.8746 40.5714 60.0805 41.6779 59.0287C42.5846 58.2027 43.3587 57.242 43.9729 56.1802L43.0042 61.1584C42.9839 61.2652 42.9874 61.3752 43.0144 61.4805C43.0414 61.5859 43.0914 61.6839 43.1607 61.7677C43.23 61.8516 43.317 61.919 43.4153 61.9654C43.5137 62.0117 43.6211 62.0358 43.7299 62.0359H49.1299C49.3013 62.0359 49.4675 61.9763 49.5999 61.8674C49.7322 61.7584 49.8226 61.6068 49.8555 61.4385L52.5116 47.7664H56.2039C57.7766 47.7664 58.2289 48.0802 58.3639 48.2152C58.4989 48.3502 58.7014 48.7721 58.4483 50.1356L56.3051 61.155C56.2848 61.2618 56.2882 61.3718 56.3153 61.4772C56.3423 61.5825 56.3923 61.6806 56.4616 61.7644C56.5309 61.8482 56.6178 61.9157 56.7162 61.962C56.8146 62.0083 56.922 62.0324 57.0308 62.0325H62.4982C62.6665 62.0259 62.8274 61.9621 62.9545 61.8517C63.0815 61.7412 63.167 61.5907 63.1969 61.425ZM38.2388 51.8602C38.0737 53.2771 37.4011 54.5864 36.3454 55.5457C35.0193 56.3706 33.4643 56.7502 31.9073 56.6291H29.5042L31.2424 47.682H34.3508C36.6356 47.682 37.5536 48.1714 37.9249 48.5797C38.2081 49.0725 38.3826 49.6202 38.4367 50.186C38.4909 50.7518 38.4234 51.3227 38.2388 51.8602Z" fill="white"/>
<path d="M86.2178 44.9954C85.2526 44.0289 84.0883 43.2844 82.8059 42.814C81.5235 42.3437 80.154 42.1586 78.7928 42.2718H68.3606C68.1892 42.2718 68.023 42.3313 67.8906 42.4403C67.7583 42.5493 67.6679 42.7009 67.635 42.8692L62.7953 67.7767C62.7749 67.8835 62.7784 67.9935 62.8054 68.0989C62.8325 68.2042 62.8824 68.3023 62.9517 68.3861C63.021 68.4699 63.108 68.5374 63.2064 68.5837C63.3047 68.6301 63.4121 68.6541 63.5209 68.6542H68.9479C69.1194 68.6542 69.2855 68.5947 69.4179 68.4857C69.5503 68.3767 69.6406 68.2251 69.6735 68.0568L70.8446 62.0324H74.8946C76.6828 62.0802 78.4677 61.8525 80.1866 61.3574C81.636 60.8779 82.9614 60.0838 84.0679 59.0321C85.9628 57.3243 87.2397 55.0376 87.6994 52.5284C88.0625 51.2448 88.1176 49.8936 87.8601 48.5846C87.6027 47.2757 87.04 46.046 86.2178 44.9954ZM80.5916 51.8602C80.4266 53.2771 79.754 54.5863 78.6983 55.5457C77.3689 56.3715 75.8101 56.75 74.25 56.6257H71.8538L73.5919 47.6786H76.7003C78.9851 47.6786 79.9031 48.1679 80.2744 48.5763C80.5586 49.0693 80.734 49.6175 80.7887 50.1839C80.8434 50.7503 80.7762 51.3219 80.5916 51.8602Z" fill="white"/>
<path d="M34.3507 46.9394C35.0789 46.8477 35.8181 46.9014 36.5254 47.0972C37.2327 47.293 37.8942 47.6271 38.4716 48.0802C38.8442 48.6538 39.0818 49.3044 39.1665 49.9831C39.2513 50.6618 39.181 51.3509 38.961 51.9985C38.7681 53.5932 37.9972 55.0617 36.7942 56.1262C35.3434 57.0606 33.6285 57.4988 31.9072 57.3749H28.6065L30.6315 46.9496L34.3507 46.9394ZM21.1309 67.9184H26.5579L27.8437 61.2967H32.4911C34.2017 61.3434 35.9093 61.1259 37.5536 60.6521C38.9031 60.2065 40.1366 59.4663 41.1649 58.4853C42.9447 56.8842 44.1434 54.7383 44.5736 52.3833C44.9142 51.2122 44.974 49.9773 44.7483 48.7788C44.5225 47.5802 44.0175 46.4517 43.2742 45.4848C42.378 44.5983 41.2991 43.918 40.1129 43.4913C38.9267 43.0646 37.6617 42.9018 36.4061 43.0143H25.9875L21.1309 67.9184Z" fill="#000004"/>
<path d="M48.5561 36.3892H53.9561L52.65 43.0109H57.4459C59.6486 42.7804 61.8615 43.3402 63.6896 44.5904C64.2947 45.2782 64.7083 46.1129 64.889 47.0109C65.0696 47.9089 65.011 48.8387 64.719 49.7069L62.4679 61.2967H57.0037L59.1469 50.2773C59.2961 49.8567 59.3494 49.408 59.3026 48.9642C59.2559 48.5203 59.1104 48.0926 58.8769 47.7123C58.0953 47.1524 57.1299 46.9111 56.1769 47.0373H51.8737L49.0995 61.3068H43.6995L48.5561 36.3892Z" fill="#000004"/>
<path d="M76.7036 46.9394C77.4318 46.8477 78.171 46.9014 78.8783 47.0972C79.5856 47.293 80.2471 47.6271 80.8245 48.0802C81.1971 48.6538 81.4347 49.3044 81.5195 49.9831C81.6042 50.6618 81.5339 51.3509 81.3139 51.9985C81.121 53.5932 80.3501 55.0617 79.1471 56.1262C77.6935 57.0628 75.9746 57.5011 74.25 57.3749H70.9493L72.9743 46.9496L76.7036 46.9394ZM63.4838 67.9184H68.9108L70.1966 61.2967H74.844C76.5546 61.3434 78.2622 61.1259 79.9065 60.6521C81.256 60.2065 82.4895 59.4663 83.5178 58.4853C85.2976 56.8842 86.4964 54.7383 86.9265 52.3833C87.2671 51.2122 87.3269 49.9773 87.1012 48.7788C86.8754 47.5802 86.3704 46.4517 85.6271 45.4848C84.7309 44.5983 83.652 43.918 82.4658 43.4913C81.2796 43.0646 80.0146 42.9018 78.759 43.0143H68.3235L63.4838 67.9184Z" fill="#000004"/>
<defs>
<radialGradient id="paint0_radial_40_2" cx="0" cy="0" r="1" gradientUnits="userSpaceOnUse" gradientTransform="translate(35.1202 37.8843) scale(62.046)">
<stop stop-color="white"/>
<stop offset="0.5" stop-color="#4C6B96"/>
<stop offset="1" stop-color="#231F20"/>
</radialGradient>
</defs>
</svg>
