<svg width="75" height="75" viewBox="0 0 75 75" fill="none" xmlns="http://www.w3.org/2000/svg">
<path fill-rule="evenodd" clip-rule="evenodd" d="M30.5072 4.6875C25.3577 4.6875 21.1834 8.72937 21.1834 13.7153V19.9653H37.3207V21.7014H14.0113C8.86188 21.7014 4.6875 25.7433 4.6875 30.7291V44.2709C4.6875 49.2567 8.86188 53.2985 14.0113 53.2985H19.3904V45.6598C19.3904 40.6739 23.5648 36.6319 28.7142 36.6319H45.9272C50.2845 36.6319 53.8165 33.2119 53.8165 28.9931V13.7153C53.8165 8.72937 49.6423 4.6875 44.4928 4.6875H30.5072ZM28.3556 15.7986C30.138 15.7986 31.583 14.3995 31.583 12.6736C31.583 10.9477 30.138 9.5486 28.3556 9.5486C26.573 9.5486 25.128 10.9477 25.128 12.6736C25.128 14.3995 26.573 15.7986 28.3556 15.7986Z" fill="url(#paint0_linear_41_17)"/>
<path fill-rule="evenodd" clip-rule="evenodd" d="M44.4924 70.3125C49.6418 70.3125 53.8163 66.2707 53.8163 61.2848V55.0347H37.6788V53.2987H60.9884C66.1378 53.2987 70.3121 49.2567 70.3121 44.2708V30.7291C70.3121 25.7433 66.1378 21.7014 60.9884 21.7014H55.6092V29.3402C55.6092 34.3263 51.4348 38.3681 46.2856 38.3681H29.0724C24.7151 38.3681 21.183 41.7881 21.183 46.0069V61.2848C21.183 66.2707 25.3575 70.3125 30.5067 70.3125H44.4924ZM46.6442 59.2015C44.8615 59.2015 43.4166 60.6004 43.4166 62.3264C43.4166 64.0523 44.8615 65.4513 46.6442 65.4513C48.4266 65.4513 49.8715 64.0523 49.8715 62.3264C49.8715 60.6004 48.4266 59.2015 46.6442 59.2015Z" fill="url(#paint1_linear_41_17)"/>
<defs>
<linearGradient id="paint0_linear_41_17" x1="29.2521" y1="4.6875" x2="29.2521" y2="53.2985" gradientUnits="userSpaceOnUse">
<stop stop-color="#327EBD"/>
<stop offset="1" stop-color="#1565A7"/>
</linearGradient>
<linearGradient id="paint1_linear_41_17" x1="45.7477" y1="21.7014" x2="45.7477" y2="70.3125" gradientUnits="userSpaceOnUse">
<stop stop-color="#FFDA4B"/>
<stop offset="1" stop-color="#F9C600"/>
</linearGradient>
</defs>
</svg>
