<svg width="75" height="75" viewBox="0 0 75 75" fill="none" xmlns="http://www.w3.org/2000/svg">
<g clip-path="url(#clip0_27_86)">
<path d="M37.5012 42.695C40.3994 42.695 42.7488 40.3456 42.7488 37.4474C42.7488 34.5492 40.3994 32.1997 37.5012 32.1997C34.603 32.1997 32.2535 34.5492 32.2535 37.4474C32.2535 40.3456 34.603 42.695 37.5012 42.695Z" fill="#00D8FF"/>
<path fill-rule="evenodd" clip-rule="evenodd" d="M37.8867 26.386C46.834 26.447 56.5957 27.0997 63.2965 33.0751C63.4934 33.2509 63.6832 33.4337 63.8684 33.6223C65.4492 35.2337 66.2754 37.8352 64.9992 39.9762C62.3813 44.372 56.5266 46.2891 50.8582 47.4692C42.3809 49.2341 33.5168 49.2481 25.043 47.6942C20.1668 46.7989 15.1805 45.2298 11.7152 41.9473C10.3664 40.67 9.21328 38.9895 9.39375 37.1192C9.68672 34.0934 12.5895 32.1516 15.0328 30.8368C21.8191 27.1852 30.0879 26.3684 37.8867 26.386ZM37.2375 27.7606C28.7719 27.818 19.609 28.3583 13.0723 33.7712C12.8438 33.9598 12.6234 34.1579 12.4113 34.3653C12.2742 34.4989 12.1418 34.6384 12.0141 34.7813C10.8668 36.0704 10.4719 38.1411 11.5547 39.6891C12.6445 41.2466 14.2992 42.3704 16.0031 43.2868C22.3758 46.7134 29.9063 47.3216 37.248 47.3473C44.6813 47.3743 52.3465 46.697 58.9125 43.302C61.5281 41.9485 64.4719 39.961 64.3676 37.4016C64.2715 35.0532 61.9816 33.6024 60.2672 32.5665C59.8031 32.2864 59.3262 32.0274 58.8422 31.7837C52.3242 28.5177 44.6859 27.7442 37.2375 27.7606Z" fill="#00D8FF"/>
<path fill-rule="evenodd" clip-rule="evenodd" d="M49.3535 12.5427C52.6266 12.6259 54.3223 16.5611 54.5461 19.4673C54.5906 20.045 54.607 20.6251 54.6 21.2052C54.593 21.8333 54.559 22.4614 54.5039 23.0872C53.8137 30.8357 50.2758 38.215 46.1098 45.0294C42.0352 51.695 37.0664 58.3419 30.307 61.431C28.0723 62.4529 25.4145 63.0833 23.4363 61.9431C20.7246 60.381 20.4281 56.7271 20.4785 53.9556C20.4914 53.2747 20.5359 52.5939 20.6062 51.9154C21.648 41.8841 26.7328 32.3814 33.0961 24.1947C36.8086 19.4181 41.2254 14.6802 46.7273 12.9646C47.5934 12.6939 48.2813 12.5298 49.3535 12.5427ZM49.1965 13.9161C45.3539 13.9771 41.9039 16.8247 38.8488 19.7837C30.8168 27.5615 24.8977 37.9056 22.5164 48.7536C22.3324 49.5939 22.1777 50.44 22.0641 51.2919C21.9762 51.9517 21.9117 52.615 21.8777 53.2806C21.8508 53.8103 21.8414 54.3411 21.8578 54.872C21.8695 55.2868 21.8965 55.7017 21.9422 56.1142C21.9762 56.4294 22.0219 56.7435 22.0793 57.0552C22.1227 57.2861 22.173 57.5157 22.2316 57.7443C22.2797 57.9294 22.3336 58.1134 22.3945 58.2962C22.8738 59.7411 24.109 61.1216 25.7672 61.1673C29.6355 61.2728 33.2777 58.4521 36.4266 55.3865C41.9543 50.0064 46.0734 43.2458 49.2914 36.1396C51.8883 30.4021 54.2637 24.1654 52.9371 17.8501C52.8867 17.6111 52.8281 17.3743 52.7613 17.14C52.7062 16.949 52.6441 16.7603 52.5762 16.5739C52.0605 15.1689 50.8477 13.9126 49.1965 13.9161Z" fill="#00D8FF"/>
<path fill-rule="evenodd" clip-rule="evenodd" d="M25.909 12.5943C30.0855 12.6752 33.8367 15.51 37.1672 18.6846C43.2445 24.4772 47.727 31.8459 51.1277 39.6014C53.7621 45.6096 56.1855 52.3537 54.0316 58.6936C53.3531 60.6916 51.6363 62.5197 49.3477 62.5666C45.1512 62.651 41.2617 59.5994 37.8867 56.3147C29.4199 48.0717 23.134 37.1897 20.9801 25.649C20.8254 24.824 20.7023 23.992 20.618 23.1565C20.5488 22.4744 20.5055 21.7889 20.4938 21.1033C20.4844 20.5502 20.4961 19.9971 20.5348 19.4463C20.5605 19.0783 20.598 18.7127 20.6484 18.3482C20.6965 18.0061 20.7574 17.665 20.8336 17.3275C20.884 17.1037 20.9402 16.8822 21.0047 16.6619C21.6363 14.5022 23.2793 12.5779 25.909 12.5943ZM25.7508 13.969C23.3051 14.0229 22.1859 16.9068 21.9609 18.9307C21.9152 19.3455 21.8871 19.7639 21.8742 20.1822C21.8578 20.7166 21.8648 21.2522 21.8918 21.7865C22.2762 29.5197 25.7332 36.9963 29.9051 43.8424C33.8332 50.2877 38.577 56.7072 45.102 60.0072C46.9863 60.96 49.2762 61.7088 50.9039 60.8088C52.9453 59.6791 53.1961 56.9873 53.3051 54.9811C53.3344 54.435 53.3379 53.8865 53.3203 53.3393C53.2992 52.6525 53.2453 51.967 53.1645 51.285C52.4121 44.9135 49.5902 38.8842 46.3488 33.1865C42.3152 26.099 37.3734 19.035 30.3797 15.3447C28.9312 14.5807 27.3633 13.9561 25.7508 13.969Z" fill="#00D8FF"/>
</g>
<defs>
<clipPath id="clip0_27_86">
<rect width="75" height="75" fill="white"/>
</clipPath>
</defs>
</svg>
