<svg width="75" height="76" viewBox="0 0 75 76" fill="none" xmlns="http://www.w3.org/2000/svg">
<g clip-path="url(#clip0_41_53)">
<path d="M50.848 26.8418L42.5653 29.5824L35.3595 32.8051L33.3436 33.3445C32.8302 33.8393 32.2918 34.3405 31.7096 34.848C31.071 35.4063 30.4763 35.9139 30.0192 36.2817C29.5121 36.6878 28.7609 37.4491 28.379 37.9311C27.8093 38.6543 27.3585 39.4219 27.1644 40.012C26.8201 41.0778 26.9892 42.1563 27.6528 43.1523C28.5042 44.4211 30.2008 45.7152 32.1791 46.597C33.1871 47.0475 34.8837 47.6248 36.1608 47.9483C38.283 48.4939 42.39 49.0839 44.65 49.1728C45.1069 49.1918 45.7205 49.1918 45.7455 49.1728C45.7957 49.141 46.1462 48.4622 46.5532 47.6185C47.9431 44.7446 48.9447 42.0484 49.4894 39.7456C49.8149 38.35 50.0715 36.4912 50.2405 34.2899C50.2844 33.6745 50.3031 31.6127 50.2656 30.9148C50.2092 29.7729 50.109 28.8467 49.9526 27.9395C49.9276 27.8063 49.9212 27.6857 49.9338 27.6794C49.9588 27.6604 50.0339 27.635 51.0544 27.3368L50.8479 26.842V26.8419H50.848V26.8418ZM48.9573 27.9648C49.0324 27.9648 49.2327 29.9123 49.2828 31.1431C49.2954 31.4032 49.289 31.5745 49.2765 31.5745C49.2265 31.5745 48.2185 30.9719 47.4987 30.5151C46.8726 30.1154 45.6831 29.3161 45.4953 29.1638C45.4326 29.1194 45.4388 29.1131 45.9523 28.9354C46.8224 28.6372 48.8885 27.9648 48.9573 27.9648ZM44.7377 29.3732C44.7941 29.3732 44.938 29.4555 45.2824 29.6713C46.572 30.4897 48.325 31.4794 49.0762 31.8093C49.3078 31.9108 49.3328 31.8727 48.8008 32.2407C47.6613 33.0273 46.2401 33.8012 44.4997 34.5816C44.193 34.7211 43.9363 34.8289 43.9301 34.8289C43.9176 34.8289 43.9551 34.6704 44.0051 34.4801C44.4246 32.9003 44.6625 31.3017 44.6751 30.0202C44.6813 29.3857 44.6813 29.3857 44.7377 29.3668C44.7251 29.3732 44.7314 29.3732 44.7377 29.3732ZM43.8675 29.7094C43.905 29.7474 43.88 31.1685 43.8299 31.5554C43.7172 32.4817 43.5419 33.3444 43.254 34.3151C43.1852 34.5497 43.1224 34.7465 43.1101 34.7591C43.0849 34.7908 42.2272 33.9407 41.9455 33.6109C41.4571 33.0399 41.0753 32.4689 40.7936 31.9107C40.6496 31.6252 40.4243 31.067 40.443 31.0479C40.5432 30.9781 43.8425 29.684 43.8675 29.7094ZM39.7731 31.3397C39.7793 31.3397 39.7856 31.3397 39.7919 31.3461C39.8044 31.3587 39.8483 31.4603 39.8859 31.5744C40.0861 32.1264 40.5368 32.9384 40.9251 33.4586C41.3508 34.0296 41.908 34.6386 42.3712 35.0383C42.5215 35.1651 42.6591 35.2856 42.6779 35.3047C42.7155 35.3428 42.728 35.3364 41.7075 35.7298C40.5244 36.1865 39.2347 36.6433 37.7572 37.1254C37.4042 37.2407 37.0516 37.357 36.6993 37.4743C36.6429 37.4934 36.6617 37.4616 36.8244 37.2016C37.5569 36.0406 38.6712 33.7631 39.2973 32.1517C39.4038 31.8726 39.5102 31.5935 39.529 31.5301C39.5541 31.4412 39.5853 31.4095 39.6666 31.3651C39.7105 31.3525 39.7544 31.3397 39.7731 31.3397ZM38.5211 31.8663C38.5398 31.879 38.2205 32.5578 37.9075 33.1795C37.3002 34.3785 36.6366 35.5585 35.7476 36.9923C35.5974 37.2396 35.4535 37.4681 35.4346 37.4934C35.4034 37.5379 35.3908 37.5251 35.2906 37.3285C35.0778 36.9034 34.9024 36.3578 34.8085 35.8566C34.7146 35.3618 34.7334 34.499 34.8399 33.9662C34.9212 33.5729 34.915 33.5792 35.1028 33.484C35.9041 33.0717 38.496 31.8409 38.5211 31.8663ZM49.3204 32.3104V32.5768C49.3204 33.9916 49.1702 35.9328 48.951 37.3476C48.9134 37.595 48.882 37.7979 48.8759 37.8043C48.8759 37.8043 48.6943 37.7536 48.4815 37.6901C47.5424 37.3919 46.522 36.9542 45.6016 36.4404C44.9943 36.1041 44.1116 35.5521 44.1367 35.5268C44.1428 35.5205 44.4058 35.3809 44.7126 35.2159C45.9398 34.5689 47.1166 33.871 48.1371 33.1795C48.519 32.9194 49.0949 32.5008 49.2202 32.3865L49.3204 32.3104ZM33.7943 34.1881C33.8193 34.1881 33.8131 34.2389 33.7755 34.4673C33.7505 34.6323 33.7192 34.9368 33.7068 35.146C33.6566 36.0723 33.8069 36.7575 34.2576 37.6964C34.3829 37.9565 34.4831 38.1722 34.4767 38.1785C34.4329 38.2166 30.2885 39.4474 28.9862 39.8089C28.5981 39.9167 28.2601 40.0119 28.2349 40.0182C28.1912 40.0309 28.1849 40.0246 28.2037 39.9167C28.3476 38.9842 29.0489 37.7661 30.0255 36.7384C30.6766 36.0532 31.1962 35.6536 32.0852 35.1397C32.7238 34.7718 33.7067 34.2199 33.7818 34.1945C33.7818 34.1881 33.7881 34.1881 33.7943 34.1881ZM43.5607 35.9581C43.567 35.9518 43.7172 36.0343 43.8988 36.1421C45.2385 36.9288 47.1041 37.6584 48.6942 38.0326L48.8383 38.0644L48.6379 38.1785C47.8053 38.648 45.0695 39.8025 42.2711 40.862C41.8641 41.0142 41.4635 41.1665 41.3882 41.1982C41.3131 41.2299 41.2442 41.249 41.2442 41.2427C41.2442 41.2362 41.357 41.0142 41.5009 40.7415C42.2834 39.257 43.0723 37.449 43.473 36.1928C43.5232 36.0723 43.5544 35.9645 43.5607 35.9581ZM42.5653 36.288C42.5717 36.2945 42.5215 36.4276 42.4589 36.5799C41.9143 37.9184 41.2005 39.3776 40.2865 41.0143C40.0549 41.4331 39.8608 41.7693 39.8544 41.7693C39.8483 41.7693 39.6604 41.6551 39.435 41.5155C38.1077 40.6908 36.9308 39.6758 36.1608 38.6924L36.0481 38.5529L36.6177 38.3942C38.6587 37.8297 40.3928 37.2207 42.1145 36.4721C42.3587 36.3706 42.5591 36.288 42.5653 36.288ZM48.7507 38.4767C48.7569 38.6226 48.4376 39.9295 48.1747 40.8747C47.9556 41.6677 47.7677 42.2894 47.4234 43.3869C47.2732 43.8691 47.1418 44.2687 47.1355 44.2687C47.1292 44.2687 47.0917 44.2624 47.0541 44.2498C45.1948 43.9071 43.5295 43.4313 41.9643 42.797C41.526 42.6193 40.9 42.3338 40.8625 42.3021C40.85 42.2893 41.2256 42.1118 41.7014 41.9024C44.5499 40.6399 47.5049 39.2062 48.519 38.5909C48.6379 38.5147 48.7319 38.4767 48.7507 38.4767ZM34.4705 38.9716C34.483 38.9842 33.6879 40.1452 32.5735 41.7248C32.1854 42.2768 31.7347 42.9238 31.5656 43.1649C31.3966 43.406 31.1399 43.7866 30.9959 44.015L30.7329 44.4274L30.4511 44.1863C30.1193 43.9071 29.5434 43.3108 29.2867 42.9809C28.7483 42.3022 28.3853 41.5853 28.2413 40.932C28.1724 40.6274 28.1724 40.4751 28.2349 40.4561C28.3288 40.4308 30.0004 40.0311 31.5656 39.663C32.4358 39.4601 33.4437 39.219 33.8068 39.1302C34.1699 39.0413 34.4643 38.9716 34.4705 38.9716ZM35.2718 39.2824L35.4721 39.5108C36.3737 40.5322 37.294 41.2873 38.4083 41.9469C38.6087 42.0611 38.7589 42.1626 38.7463 42.169C38.7026 42.2007 34.8774 43.5772 33.1057 44.199C32.1103 44.5542 31.2901 44.8397 31.2839 44.8397C31.2777 44.8397 31.2213 44.8017 31.1586 44.7572L31.046 44.6747L31.2275 44.4083C31.816 43.5455 32.5548 42.6003 34.1638 40.6337L35.2718 39.2824ZM40.2678 42.9048C40.2739 42.8985 40.5494 42.9999 40.8874 43.1269C41.7014 43.4377 42.3461 43.6344 43.2102 43.8564C44.2745 44.1293 45.8145 44.3957 46.7223 44.4718C46.8601 44.4844 46.9352 44.4972 46.9101 44.5162C46.8662 44.5416 45.946 44.8525 45.2699 45.0682C44.193 45.4107 40.9063 46.394 38.2268 47.1744C37.7322 47.3203 37.3065 47.4408 37.2814 47.4471C37.2189 47.4599 37.0122 47.4027 37.0122 47.3773C37.0122 47.3647 37.1625 47.168 37.3441 46.9523C38.2455 45.8611 39.1408 44.6431 39.8859 43.4885C40.0924 43.1712 40.2678 42.9111 40.2678 42.9048ZM39.1658 42.9366C39.1721 42.9429 38.7276 43.6661 37.9514 44.9095C37.6195 45.436 37.2501 46.0324 37.1186 46.2417C36.9934 46.4447 36.8056 46.762 36.6992 46.9396L36.5176 47.2631L36.4238 47.2378C36.1983 47.1743 34.6144 46.6096 34.195 46.4384C33.6753 46.229 33.1369 45.9753 32.7362 45.7596C32.2355 45.4868 31.6094 45.0807 31.6595 45.0681C31.672 45.0618 32.5297 44.827 33.5626 44.5416C36.3048 43.7865 37.826 43.3489 38.8215 43.0317C39.0031 42.9746 39.1596 42.9302 39.1658 42.9366ZM46.9602 44.7889H46.9664C46.9915 44.8524 45.9773 47.7072 45.6078 48.608C45.5265 48.811 45.4953 48.8618 45.4514 48.8554C45.345 48.8492 43.8738 48.6398 42.9784 48.5065C41.4197 48.2655 38.8027 47.8023 38.1454 47.6501L37.9952 47.6184L38.9279 47.4026C40.9313 46.9458 41.8954 46.6985 42.872 46.3939C44.1054 46.0133 45.3262 45.5375 46.5595 44.9539C46.7535 44.865 46.9163 44.7953 46.9602 44.7889Z" fill="url(#paint0_linear_41_53)"/>
<path d="M42.3087 7.27718C42.1709 7.25825 39.9484 8.07027 38.5148 8.66019C36.5802 9.45962 35.0778 10.2209 34.1512 10.8806C33.8069 11.1281 33.3749 11.5658 33.3061 11.737C33.2811 11.8005 33.2685 11.8766 33.2685 11.9527L34.1074 12.7584L36.1045 13.4055L40.8562 14.2683L46.2903 15.2136L46.3467 14.7378C46.328 14.7378 46.3154 14.7315 46.2967 14.7315L45.5829 14.6172L45.439 14.3571C44.7002 13.0376 43.8863 11.4008 43.4106 10.2969C43.0412 9.44049 42.6906 8.45093 42.4965 7.74037C42.3901 7.30898 42.3776 7.28362 42.3088 7.2773V7.27715H42.3087V7.27718ZM42.2084 7.60082H42.2148C42.221 7.60708 42.246 7.78483 42.2711 7.99406C42.3774 8.88234 42.5717 9.73865 42.8784 10.6649C43.11 11.3628 43.11 11.3247 42.8408 11.2422C42.2023 11.0646 39.3412 10.5635 37.269 10.2716C36.9372 10.2272 36.6554 10.1828 36.6554 10.1765C36.6304 10.1511 38.1517 9.34538 38.8216 9.02827C39.6792 8.6285 42.0332 7.63251 42.2084 7.60082ZM36.1733 10.4429L36.4176 10.5253C37.7447 10.9821 41.0815 11.6292 42.9222 11.7815C43.1287 11.8005 43.3041 11.8196 43.3102 11.8196C43.3165 11.8259 43.1413 11.9211 42.9158 12.0289C42.0269 12.4793 41.0503 13.0312 40.3741 13.4563C40.1738 13.5831 39.9922 13.6847 39.9672 13.6847C39.9422 13.6847 39.8107 13.6593 39.673 13.6403L39.4226 13.6021L38.7966 12.9804C37.6947 11.8956 36.8308 11.0583 36.4989 10.741L36.1733 10.4429ZM35.923 10.6395L36.8057 11.7561C37.2877 12.3715 37.776 12.9741 37.8825 13.1073C37.9889 13.2406 38.0766 13.3485 38.0703 13.3548C38.0453 13.3738 36.7933 13.1263 36.1296 12.9742C35.4472 12.8155 35.1655 12.7394 34.746 12.6062L34.4017 12.492V12.4031C34.4079 11.9781 34.9401 11.3437 35.8416 10.6967L35.923 10.6395ZM43.423 12.1621C43.4481 12.1621 43.4793 12.2192 43.5544 12.3905C43.7673 12.8662 44.431 14.1478 44.5936 14.3951C44.6439 14.4777 44.7314 14.484 43.8488 14.3381C41.7265 13.9891 41.044 13.875 41.044 13.8623C41.044 13.856 41.1066 13.8116 41.188 13.7671C41.8454 13.3993 42.509 12.9298 43.0975 12.4286C43.2415 12.308 43.373 12.1938 43.398 12.1748C43.4042 12.1621 43.4168 12.1558 43.423 12.1621Z" fill="url(#paint1_linear_41_53)"/>
<path d="M33.3498 11.6484C33.3498 11.6484 33.2121 11.8706 33.3436 12.2005C33.4251 12.4034 33.6629 12.6508 33.9321 12.9046C33.9321 12.9046 36.718 15.6579 37.0561 16.0512C38.5961 17.8529 39.266 19.6292 39.3286 22.078C39.3662 23.6513 39.0719 25.0343 38.3394 26.6393C37.0372 29.5195 34.2888 32.6979 30.0505 36.2252L30.6704 36.0158C31.071 35.7112 31.6157 35.3878 32.8928 34.6772C35.8415 33.0404 39.1596 31.5369 43.2289 29.9889C49.0886 27.7558 58.7236 25.142 64.2077 24.292L64.7775 24.2032L64.6898 24.0636C64.1891 23.2769 63.8446 22.7885 63.4314 22.2683C62.2295 20.7584 60.7709 19.5341 58.9865 18.519C56.5324 17.1297 53.3582 16.0449 49.3391 15.2392C48.5816 15.0869 46.9163 14.7951 45.564 14.5858C42.6967 14.1354 40.8436 13.8245 38.8027 13.4693C38.0703 13.3423 36.9746 13.1521 36.2484 12.9935C35.8728 12.9109 35.1529 12.7397 34.5894 12.543C34.1387 12.3653 33.4875 12.1877 33.3498 11.6484ZM34.9651 13.2345C34.9713 13.2282 35.0714 13.2662 35.203 13.3106C35.4409 13.393 35.7476 13.4882 36.1108 13.5898C36.3856 13.6664 36.6611 13.7404 36.9372 13.8118C37.3128 13.9069 37.6258 13.9957 37.632 13.9957C37.6759 14.0402 38.3083 16.0891 38.5211 16.8758C38.6024 17.1741 38.6651 17.4277 38.6588 17.4277C38.6524 17.4342 38.5836 17.3263 38.5023 17.1804C37.7698 15.8735 36.6116 14.5476 35.2718 13.4818C35.0966 13.355 34.9651 13.2408 34.9651 13.2345ZM38.0452 14.0973C38.0766 14.0973 38.2143 14.1163 38.3833 14.1543C39.4476 14.3954 41.357 14.7634 42.5778 14.9727C42.7844 15.0044 42.9472 15.0426 42.9472 15.0552C42.9472 15.0679 42.872 15.1123 42.7781 15.1631C42.5716 15.2709 41.7389 15.772 41.4635 15.9624C40.7685 16.4318 40.1425 16.9393 39.6917 17.3961C39.5102 17.5801 39.3536 17.7323 39.3536 17.7323C39.3536 17.7323 39.3162 17.6245 39.2847 17.4912C39.0595 16.6094 38.5899 15.3025 38.1642 14.3827C38.0953 14.2368 38.0389 14.1036 38.0389 14.0909C38.0389 14.1036 38.0389 14.0973 38.0452 14.0973ZM43.4668 15.144C43.5044 15.1567 43.567 15.3724 43.6922 15.8482C43.9238 16.7681 44.0303 17.7958 43.9927 18.7537C43.9801 19.0202 43.9677 19.2676 43.9551 19.2994L43.9363 19.3627L43.6108 19.2549C42.9409 19.0392 41.8516 18.7156 40.9189 18.4492C40.3866 18.3033 39.9548 18.1701 39.9548 18.1574C39.9548 18.1193 40.7311 17.3327 41.0629 17.0345C41.6951 16.4698 43.4104 15.125 43.4668 15.144ZM43.8988 15.2074C43.9176 15.1885 46.4907 15.6388 47.6614 15.8672C48.5317 16.0385 49.7962 16.3049 49.8713 16.3367C49.9089 16.3493 49.7774 16.4255 49.3579 16.6158C47.7052 17.3708 46.478 18.0495 45.2574 18.8743C44.9381 19.09 44.6688 19.2676 44.6626 19.2676C44.6564 19.2676 44.6501 19.0836 44.6501 18.8616C44.6501 17.6563 44.4122 16.4382 43.9739 15.4105C43.9301 15.309 43.8925 15.2138 43.8988 15.2074ZM50.5537 16.5397C50.5725 16.5587 50.4911 17.0726 50.4159 17.3771C50.1906 18.3223 49.5833 19.7245 48.8384 21.0439C48.7068 21.2787 48.5879 21.469 48.5753 21.4753C48.5629 21.4816 48.3939 21.3864 48.1997 21.2723C47.4736 20.8409 46.6472 20.4349 45.7456 20.0542C45.4953 19.9464 45.2761 19.8575 45.2699 19.8449C45.2259 19.8068 47.2419 18.4555 48.3062 17.8085C49.1514 17.2883 50.5286 16.5143 50.5537 16.5397ZM51.0294 16.6158C51.0858 16.6158 52.2253 16.933 52.8199 17.1107C54.2912 17.5548 55.9815 18.1828 57.0833 18.6903L57.5403 18.8997L57.2211 18.9758C54.5292 19.6038 52.2253 20.3271 50.0027 21.2406C49.8212 21.3167 49.6584 21.3802 49.646 21.3802C49.6334 21.3802 49.696 21.2343 49.7774 21.0566C50.4473 19.6165 50.8793 18.113 50.9856 16.8315C50.992 16.7109 51.0106 16.6158 51.0294 16.6158ZM39.6855 19.2549C39.7042 19.2358 40.5745 19.4453 41.044 19.5784C41.7577 19.7814 43.2727 20.2952 43.2727 20.3334C43.2727 20.3397 43.1037 20.4856 42.9034 20.6633C42.0833 21.3548 41.2944 22.0842 40.349 23.0105C40.0673 23.2834 39.8295 23.5054 39.817 23.5054C39.8044 23.5054 39.7983 23.4672 39.8044 23.4165C39.9484 22.3507 39.9172 20.9804 39.7168 19.5911C39.698 19.4134 39.6792 19.2612 39.6855 19.2549ZM57.9724 19.274C57.9848 19.2866 57.5717 19.9464 57.3088 20.3206C56.9332 20.8662 56.3821 21.5895 55.1363 23.1755C54.4791 24.0128 53.7402 24.9582 53.4961 25.2753C53.2456 25.5925 53.0391 25.8589 53.0328 25.8589C53.0265 25.8589 52.9453 25.7448 52.8576 25.6053C52.1563 24.5394 51.3174 23.6068 50.322 22.7695C50.1342 22.6108 49.9277 22.4395 49.8588 22.3888C49.7899 22.3381 49.7335 22.2873 49.7335 22.281C49.7335 22.262 50.7977 21.7988 51.6054 21.469C53.0203 20.8853 54.9484 20.1875 56.3947 19.737C57.1522 19.496 57.9598 19.2612 57.9724 19.274ZM58.4544 19.4008C58.4794 19.3945 58.6297 19.4706 58.8113 19.5784C60.3326 20.4602 61.8225 21.5958 62.9996 22.7631C63.3314 23.0931 64.1515 23.9558 64.1389 23.9621C64.1389 23.9621 63.8509 23.9875 63.5129 24.0128C60.8773 24.2159 57.5029 24.7805 54.2599 25.5734C54.0408 25.6241 53.8468 25.6686 53.8342 25.6686C53.8218 25.6686 54.0659 25.4212 54.3727 25.123C56.2759 23.2643 57.1461 22.0906 58.1728 19.9971C58.3167 19.6863 58.442 19.4199 58.4544 19.4008C58.4482 19.4008 58.4482 19.4008 58.4544 19.4008ZM44.5123 20.8473C44.6 20.8662 45.4139 21.2534 46.0274 21.5641C46.5908 21.8495 47.436 22.3064 47.4798 22.3444C47.4861 22.3507 47.1855 22.5093 46.8163 22.6933C45.6392 23.2896 44.6313 23.8542 43.5795 24.5013C43.279 24.6853 43.0286 24.8376 43.0224 24.8376C42.9973 24.8376 43.0035 24.8121 43.1726 24.5013C43.7361 23.461 44.1868 22.2176 44.4435 21.0058C44.4685 20.9107 44.4936 20.8473 44.5123 20.8473ZM43.6984 20.9995C43.7172 21.0186 43.5044 21.7988 43.373 22.2239C43.1162 23.0296 42.6842 24.0382 42.2649 24.7995C42.1646 24.9771 42.0143 25.2372 41.933 25.3831L41.7765 25.6368L41.4259 25.2944C41.019 24.8947 40.6871 24.6473 40.2615 24.4252C40.0924 24.3364 39.9609 24.2602 39.9609 24.2476C39.9609 24.1969 41.0315 23.2136 41.8516 22.503C42.4401 21.9891 43.6797 20.9805 43.6984 20.9995ZM48.6756 23.074L48.9824 23.2769C49.6834 23.7401 50.5098 24.3554 51.1422 24.8947C51.499 25.1928 52.1876 25.8209 52.3255 25.9732L52.4005 26.0557L51.8935 26.2016C49.0261 27.0072 46.8099 27.7241 44.2243 28.6884C43.9363 28.7962 43.6922 28.885 43.6733 28.885C43.6359 28.885 43.6045 28.9167 44.2494 28.314C45.9022 26.7726 47.3671 25.0723 48.4564 23.4165L48.6756 23.074ZM47.3671 23.4039C47.3796 23.4165 46.522 24.6409 46.0085 25.3324C45.395 26.1571 44.3057 27.5401 43.5544 28.4409C43.2415 28.8152 42.9723 29.1261 42.9597 29.1324C42.9409 29.1388 42.9347 29.0436 42.9347 28.8977C42.9347 28.13 42.7407 27.3116 42.4025 26.6139C42.2585 26.322 42.2335 26.2522 42.2649 26.2206C42.3838 26.1127 44.2056 25.0596 45.3575 24.4316C46.1338 24.0129 47.3482 23.3912 47.3671 23.4039ZM39.4538 25.3705C39.4726 25.3705 39.6166 25.4466 39.7794 25.5355C40.1801 25.7575 40.5369 26.0049 40.8562 26.2714C40.8687 26.284 40.706 26.4173 40.4931 26.5758C39.8983 27.0072 38.9968 27.6987 38.471 28.1238C37.92 28.5679 37.9013 28.5805 37.9639 28.4854C38.3771 27.8447 38.5836 27.483 38.8028 27.02C38.9968 26.6077 39.1909 26.1191 39.3286 25.6941C39.3787 25.5101 39.4413 25.3705 39.4538 25.3705ZM41.5637 27.0453C41.5949 27.039 41.6326 27.096 41.8015 27.3498C42.1584 27.889 42.4338 28.6123 42.5028 29.1959L42.5152 29.3229L41.6576 29.6591C40.1237 30.2617 38.7089 30.8581 37.7509 31.3021C37.4818 31.429 37.0122 31.6574 36.7055 31.8097C36.3987 31.9682 36.1483 32.0888 36.1483 32.0825C36.1483 32.0761 36.3423 31.9302 36.5802 31.7525C38.4523 30.376 40.0737 28.866 41.2882 27.3562C41.4197 27.1975 41.5387 27.0516 41.5511 27.0453L41.5637 27.0453ZM40.5933 27.2864C40.6184 27.3118 39.9047 28.1301 39.4164 28.6312C38.2081 29.8811 37.0123 30.8581 35.5285 31.8097C35.3407 31.9302 35.1717 32.038 35.1529 32.0508C35.109 32.0761 35.1654 32.0127 35.8165 31.2958C36.2297 30.8453 36.5427 30.4647 36.8996 29.9953C37.1374 29.6845 37.1813 29.6401 37.5257 29.3926C38.446 28.7201 40.5682 27.261 40.5933 27.2864Z" fill="url(#paint2_radial_41_53)"/>
<path d="M13.4834 53.5549C13.3679 53.5549 13.2524 53.5661 13.1379 53.5661C10.8053 53.692 9.23202 54.7323 8.31215 56.7638C7.52542 58.601 7.61131 61.0026 8.32098 62.8512C9.14622 64.6574 10.4797 65.6106 12.7055 65.9707C13.1764 66.0488 13.4922 66.3108 14.4043 67.39L15.5266 68.7224H17.5621L16.2087 67.3398C15.4605 66.5817 14.8553 65.9216 14.8553 65.8636C14.8553 65.8057 15.1416 65.6786 15.488 65.5716C16.6301 65.2213 17.5785 64.3273 18.242 62.957C18.7789 61.8566 18.856 61.5165 18.9329 60.1474C19.1343 56.0724 17.0141 53.5246 13.4833 53.5537L13.4834 53.5549ZM15.268 64.2115C14.2777 64.6975 12.8398 64.7945 11.9013 64.4456C10.9308 64.0844 9.9912 63.0631 9.56861 61.9069C9.09883 60.6426 9.16591 58.3102 9.70286 57.2598C10.5666 55.5874 11.7087 54.8182 13.3778 54.8182C15.8533 54.8182 17.2617 56.3546 17.4454 59.2422C17.5907 61.6528 16.7941 63.4611 15.2691 64.2104L15.268 64.2115ZM50.4302 57.0357C49.5764 57.0357 48.9229 57.3859 48.4827 58.0759L48.1372 58.6223V57.2018H46.6596V65.72H48.1362V62.9973C48.1362 60.5076 48.1669 60.2166 48.5102 59.5353C48.9834 58.601 49.7975 58.1351 50.5843 58.3581L51.1124 58.5142V57.038H50.4302V57.0357ZM41.7492 56.9576C41.4597 56.9576 41.1527 56.9967 40.847 57.0648C38.8697 57.5887 37.7552 59.5064 37.8234 61.4798C37.8234 63.1322 38.1402 63.9583 38.927 64.8247C40.5389 66.1648 41.9967 66.2718 43.964 65.5528C44.2996 65.4078 44.6649 65.2406 44.6649 65.2406V63.9005L43.964 64.2684C42.3719 64.9708 41.1726 64.9707 40.212 64.1434C39.5993 63.5113 39.3296 62.7531 39.2054 61.888H45.1632V60.7395C45.1632 58.3982 43.7725 56.9198 41.748 56.9576H41.7492ZM39.3396 60.6927C39.3396 60.6927 39.5597 59.2322 40.376 58.6591C40.7689 58.3781 41.2199 58.2421 41.6611 58.2421C42.1035 58.2421 42.5446 58.387 42.9088 58.6692C43.6571 59.2522 43.7825 60.6817 43.7825 60.6817H39.3396V60.6927H39.3396ZM3.71631 59.1564C2.11438 58.173 1.4036 57.4638 1.49051 56.6276C1.73913 54.3142 4.56028 54.6342 6.12258 55.5094L6.13369 53.953C6.13369 53.953 5.26994 53.5739 4.0321 53.5538C2.13305 53.5248 0.905157 54.1558 0.329796 55.4403C-0.515285 57.3356 0.232989 58.7649 2.93749 60.3594C4.45581 61.2546 5.12691 62.0318 5.12691 62.8791C5.12691 64.6296 3.04414 65.2406 0.895365 64.1423C0.453138 63.9193 0.0790011 63.7331 0.0592136 63.7331C-0.0178565 64.2293 0.0218709 65.4167 0.0218709 65.4167C0.0218709 65.4167 0.682065 65.6977 1.6722 65.8915C4.12789 66.3877 6.36262 65.2204 6.57384 63.325C6.75761 61.5456 6.12263 60.6123 3.71641 59.1551L3.71631 59.1564ZM63.5079 56.9376C63.2197 56.9376 62.9138 56.9777 62.5947 57.0458C60.6198 57.5698 59.5073 59.4875 59.5832 61.461C59.5832 63.1111 59.899 63.9294 60.6857 64.7946C62.2976 66.1359 63.7555 66.244 65.7327 65.5238C66.0671 65.3789 66.4313 65.214 66.4313 65.214V63.8716L65.7316 64.2416C64.1363 64.9419 62.9369 64.9419 61.9797 64.1146C61.3635 63.4836 61.0962 62.7343 60.9718 61.859H66.9199V60.7107C66.9199 58.3805 65.5291 56.9009 63.5046 56.94L63.5079 56.9376ZM61.0983 60.6727C61.0983 60.6727 61.3206 59.2143 62.1358 58.63C62.5276 58.348 62.9786 58.2119 63.4199 58.2119C63.86 58.2119 64.3034 58.3569 64.6677 58.6401C65.4159 59.2232 65.5413 60.6626 65.5413 60.6626H61.0995L61.0983 60.6727ZM34.0143 59.1753C32.4123 58.1942 31.7037 57.4828 31.7895 56.6465C32.0382 54.3319 34.8594 54.6531 36.4217 55.5283L36.4327 53.9719C36.4327 53.9719 35.569 53.5928 34.3311 53.5749C32.4321 53.546 31.2042 54.177 30.6278 55.4614C29.7838 57.3567 30.5419 58.7861 33.2375 60.3805C34.7538 61.2748 35.4249 62.0418 35.4249 62.8891C35.4249 64.6396 33.3432 65.2606 31.1943 64.1523C30.7542 63.9293 30.3802 63.7453 30.3582 63.7453C30.2811 64.2414 30.3208 65.4289 30.3208 65.4289C30.3208 65.4289 30.9732 65.6998 31.9602 65.9038C34.4181 66.4011 36.6539 65.2348 36.8641 63.3394C37.0467 61.5689 36.413 60.6357 34.0143 59.1774V59.1753H34.0143ZM72.1901 57.0157C71.3363 57.0157 70.6751 57.3668 70.2427 58.057L69.8971 58.6011V57.1829H68.4195V65.6988H69.896V62.9762C69.896 60.4876 69.9257 60.1955 70.2702 59.5154C70.7433 58.5822 71.5574 58.1151 72.3441 58.3391L72.8722 58.4952V57.0157L72.1901 57.0157ZM22.2635 59.1262V53.7009H20.7738V65.7177H27.0387V64.2985H22.2636V59.1262H22.2635ZM56.7149 60.8175L55.487 64.0553L54.3064 60.7997L53.1071 57.1918H51.5822C52.5703 60.0305 53.6451 62.9181 54.7289 65.7177C55.1987 65.7288 55.6696 65.7177 56.1394 65.7177L57.7976 61.4988L59.4864 57.1929H58.0287C58.0287 57.1929 57.3849 58.9032 56.7139 60.8187L56.7149 60.8175ZM25.6963 50.4263C25.9362 50.4263 26.1364 50.3484 26.3014 50.1811C26.4642 50.0161 26.55 49.8221 26.55 49.579C26.55 49.336 26.4642 49.133 26.3014 48.9769C26.1364 48.8209 25.946 48.7427 25.7072 48.7427C25.4653 48.7427 25.265 48.8209 25.1021 48.9858C24.9371 49.1509 24.8623 49.3538 24.8623 49.588C24.8623 49.8333 24.9393 50.0361 25.1021 50.1901C25.2562 50.3461 25.4565 50.4242 25.6963 50.4242V50.4263ZM25.1682 49.0439C25.3112 48.899 25.4851 48.832 25.7073 48.832C25.9164 48.832 26.0903 48.899 26.2355 49.0439C26.3786 49.1888 26.4556 49.365 26.4556 49.579C26.4556 49.7931 26.3786 49.9782 26.2355 50.1231C26.0903 50.2679 25.9164 50.3371 25.7073 50.3371C25.495 50.3371 25.3222 50.2702 25.1792 50.1231C25.0362 49.9782 24.9592 49.7931 24.9592 49.579C24.9592 49.365 25.0252 49.1889 25.1682 49.0439ZM25.5235 49.6571H25.6203C25.6886 49.6571 25.7557 49.724 25.8129 49.8511L25.9285 50.1142H26.11L25.967 49.822C25.9087 49.705 25.8515 49.637 25.7844 49.6179C25.8691 49.5979 25.9362 49.5689 25.9846 49.5109C26.0329 49.4608 26.0506 49.3927 26.0506 49.3157C26.0506 49.2266 26.0231 49.1598 25.9648 49.1107C25.8988 49.0549 25.7931 49.0248 25.6567 49.0248H25.3509V50.1142H25.5049V49.657L25.5235 49.6571ZM25.5235 49.1509H25.6578C25.7546 49.1509 25.8229 49.171 25.8603 49.1999C25.8966 49.2289 25.9065 49.2669 25.9065 49.336C25.9065 49.4619 25.8294 49.5211 25.6864 49.5211H25.5214V49.1509H25.5235ZM0.915 49.5601C0.915 49.181 0.904041 48.899 0.895213 48.7328H0.904041C0.9425 48.9289 0.989838 49.0751 1.02835 49.172L2.45863 52.4098H2.69852L4.12881 49.1431C4.16742 49.054 4.20593 48.9201 4.25321 48.7339H4.26417C4.23561 49.0573 4.22571 49.3382 4.22571 49.5623V52.4199H4.71523V48.172H4.10131L2.78655 51.1265C2.73809 51.2436 2.67097 51.4187 2.58517 51.6506H2.56528C2.53672 51.5357 2.46959 51.3607 2.3739 51.1466L1.08873 48.1619H0.436344V52.4097H0.907238V49.5622L0.915 49.5601ZM5.78807 49.568H6.21066V52.2136H5.78807V49.568ZM5.99934 48.5979C6.08742 48.5979 6.16221 48.5677 6.21939 48.5088C6.27774 48.4507 6.3163 48.3749 6.3163 48.2858C6.3163 48.1988 6.28763 48.1207 6.22055 48.0628C6.16114 48.0037 6.08519 47.9735 5.99827 47.9735C5.91253 47.9735 5.83551 48.0037 5.77818 48.0628C5.72003 48.1207 5.68142 48.1988 5.68142 48.2858C5.68142 48.3828 5.71115 48.4507 5.77818 48.5088C5.84434 48.5677 5.91248 48.5979 5.99827 48.5979H5.99934ZM9.22319 52.2717V51.8056C8.99208 51.9806 8.74342 52.0677 8.48598 52.0677C8.178 52.0677 7.92812 51.9607 7.74547 51.7556C7.56398 51.5527 7.46717 51.2705 7.46717 50.9193C7.46717 50.5514 7.56398 50.2591 7.76419 50.0362C7.95674 49.8221 8.20657 49.7151 8.51246 49.7151C8.76219 49.7151 9.00192 49.7932 9.22324 49.9494V49.4532C9.02192 49.3462 8.79197 49.2971 8.53225 49.2971C8.05248 49.2971 7.67849 49.4532 7.39903 49.7544C7.1217 50.0553 6.97867 50.4645 6.97867 50.9585C6.97867 51.3977 7.10298 51.7668 7.36164 52.0489C7.63115 52.3387 7.97566 52.4859 8.3981 52.4859C8.72475 52.4768 8.99208 52.4076 9.22319 52.2717ZM10.4323 50.8612C10.4323 50.5123 10.5093 50.2302 10.6524 50.0361C10.7867 49.8611 10.9494 49.7731 11.142 49.7731C11.3048 49.7731 11.4203 49.8032 11.505 49.8712V49.365C11.439 49.336 11.3433 49.326 11.219 49.326C11.0462 49.326 10.8923 49.3849 10.7569 49.4932C10.6139 49.6079 10.4995 49.7831 10.4324 50.0061H10.4214V49.385H9.9428V52.4176H10.4225V50.8612H10.4323ZM13.1863 52.4779C13.6374 52.4779 14.0005 52.3307 14.27 52.0386C14.5384 51.7486 14.6727 51.3585 14.6727 50.8723C14.6727 50.3763 14.5495 49.9971 14.2987 49.7149C14.05 49.433 13.7045 49.2968 13.2533 49.2968C12.8022 49.2968 12.4391 49.4329 12.1696 49.696C11.8813 49.986 11.7295 50.3952 11.7295 50.9203C11.7295 51.3774 11.8527 51.7566 12.1124 52.0386C12.3808 52.3307 12.7362 52.4767 13.1863 52.4767V52.4779ZM12.5041 50.0072C12.6868 49.812 12.9267 49.715 13.2237 49.715C13.5319 49.715 13.7629 49.812 13.9345 50.0072C14.1072 50.2112 14.1931 50.5023 14.1931 50.8913C14.1931 51.2614 14.116 51.5525 13.9532 51.7476C13.7904 51.9516 13.5505 52.0597 13.2336 52.0597C12.9255 52.0597 12.6868 51.9515 12.5041 51.7476C12.3226 51.5424 12.2357 51.2614 12.2357 50.8913C12.217 50.5234 12.3127 50.2224 12.5041 50.0072ZM16.7732 52.2136C16.9558 52.0487 17.0527 51.8458 17.0527 51.5914C17.0527 51.3684 16.9756 51.1834 16.8326 51.0373C16.7159 50.9204 16.5356 50.8144 16.2748 50.7073C16.0437 50.6093 15.9007 50.5222 15.8236 50.4542C15.7466 50.3762 15.6993 50.2793 15.6993 50.1421C15.6993 50.0161 15.7478 49.9191 15.8424 49.841C15.9392 49.7631 16.0625 49.7252 16.2275 49.7252C16.4861 49.7252 16.7072 49.7943 16.9096 49.9404V49.4542C16.716 49.3562 16.5058 49.3094 16.2659 49.3094C15.9579 49.3094 15.6982 49.3953 15.5067 49.5612C15.3053 49.7264 15.2097 49.9404 15.2097 50.1923C15.2097 50.4153 15.2756 50.6004 15.401 50.7364C15.5067 50.8524 15.6872 50.9706 15.938 51.0764C16.1779 51.1835 16.3407 51.2804 16.4276 51.3584C16.5134 51.4366 16.5519 51.5335 16.5519 51.6484C16.5519 51.9315 16.3605 52.0777 15.9864 52.0777C15.6981 52.0777 15.4396 51.9818 15.2084 51.7878V52.3117C15.4175 52.4389 15.6684 52.4968 15.9456 52.4968C16.3011 52.4779 16.5793 52.3898 16.7708 52.2148L16.7732 52.2136ZM19.0574 49.2969C18.6061 49.2969 18.2431 49.433 17.9736 49.6961C17.6875 49.9861 17.5335 50.3953 17.5335 50.9204C17.5335 51.3775 17.6579 51.7567 17.9164 52.0387C18.1859 52.3308 18.5402 52.4768 18.9913 52.4768C19.4534 52.4768 19.8056 52.3297 20.0751 52.0375C20.3447 51.7477 20.4789 51.3574 20.4789 50.8713C20.4789 50.3751 20.3534 49.9961 20.1047 49.714C19.8452 49.4319 19.4996 49.2959 19.0595 49.2959L19.0574 49.2969ZM19.9881 50.8914C19.9881 51.2615 19.9111 51.5525 19.7483 51.7476C19.5854 51.9517 19.3455 52.0598 19.0286 52.0598C18.7205 52.0598 18.4818 51.9516 18.2991 51.7476C18.1176 51.5425 18.0307 51.2615 18.0307 50.8914C18.0307 50.5011 18.1265 50.2002 18.319 49.9971C18.5005 49.8032 18.7405 49.705 19.0386 49.705C19.3356 49.705 19.5744 49.803 19.7471 49.9971C19.9012 50.2112 19.987 50.5022 19.987 50.8914H19.9881ZM21.2843 52.4088H21.7629V49.7832H22.4638V49.375H21.7629V48.9068C21.7629 48.4809 21.9256 48.2669 22.2624 48.2669C22.3757 48.2669 22.4913 48.2958 22.5771 48.3449V47.9068C22.4913 47.8678 22.3757 47.8589 22.2315 47.8589C21.973 47.8589 21.7618 47.937 21.5889 48.1019C21.3876 48.2959 21.2809 48.5479 21.2809 48.8892V49.3864H20.7747V49.7945H21.2809V52.4102L21.2843 52.4088ZM23.2504 51.5815C23.2504 52.1747 23.5091 52.4768 24.0371 52.4768C24.2286 52.4768 24.3727 52.4456 24.4882 52.3765V51.9595C24.4003 52.0264 24.2957 52.0577 24.1802 52.0577C24.0174 52.0577 23.903 52.0185 23.8358 51.9304C23.7676 51.8436 23.7291 51.6963 23.7291 51.4934V49.782H24.4882V49.3739H23.7291V48.4798C23.5641 48.5378 23.4024 48.5869 23.2493 48.6358V49.3738H22.7322V49.782H23.2493V51.5804L23.2504 51.5815ZM74.7427 57.1717C74.5799 57.0157 74.3873 56.9376 74.1486 56.9376C73.9066 56.9376 73.7062 57.0157 73.5434 57.1829C73.3806 57.3468 73.3035 57.5508 73.3035 57.785C73.3035 58.0281 73.3806 58.231 73.5422 58.387C73.7051 58.5431 73.9053 58.6212 74.1474 58.6212C74.3861 58.6212 74.5875 58.5431 74.7526 58.3781C74.9144 58.2109 75.0002 58.018 75.0002 57.7761C74.9913 57.5308 74.9044 57.3278 74.7416 57.1718L74.7427 57.1717ZM74.6657 58.3202C74.5227 58.465 74.3488 58.5319 74.1376 58.5319C73.9286 58.5319 73.7548 58.465 73.6095 58.3202C73.4665 58.173 73.3894 57.989 73.3894 57.7738C73.3894 57.5619 73.4554 57.3859 73.6007 57.2387C73.7436 57.0938 73.9165 57.0268 74.1376 57.0268C74.3467 57.0268 74.5206 57.0938 74.6657 57.2387C74.8087 57.3859 74.8857 57.5619 74.8857 57.7738C74.8857 57.9991 74.8197 58.173 74.6657 58.3202ZM74.2344 57.824C74.3202 57.8039 74.3885 57.7649 74.4357 57.717C74.4842 57.6667 74.5019 57.5987 74.5019 57.5208C74.5019 57.4338 74.4743 57.3647 74.4161 57.3168C74.3501 57.261 74.2434 57.2309 74.1081 57.2309H73.8022V58.319H73.9563V57.8619H74.0519C74.118 57.8619 74.184 57.9287 74.2434 58.0558L74.3577 58.3179H74.5405L74.3975 58.0257C74.3479 57.8986 74.2907 57.8405 74.2325 57.8216L74.2344 57.824ZM74.1287 57.7259H73.9637V57.3581H74.0991C74.1948 57.3581 74.2619 57.3758 74.3005 57.406C74.3389 57.4349 74.3478 57.4729 74.3478 57.542C74.3478 57.668 74.2708 57.726 74.1278 57.726L74.1287 57.7259ZM47.3605 49.2491H47.4948V48.1598H47.85V48.0237H47.0052V48.1598H47.3606V49.2491H47.3605ZM48.1747 48.4307C48.1747 48.3247 48.1747 48.2378 48.167 48.1888C48.1758 48.2467 48.1956 48.2858 48.2044 48.3148L48.6171 49.2491H48.6831L49.0967 48.3058C49.1078 48.2768 49.1166 48.2389 49.1353 48.1888C49.1264 48.2858 49.1264 48.3637 49.1264 48.4229V49.248H49.2695V48.0237H49.0967L48.7227 48.8689C48.7139 48.899 48.6841 48.958 48.6654 49.025H48.6544C48.6467 48.9859 48.627 48.9469 48.5994 48.8801L48.2253 48.0238H48.0317V49.2502H48.167V48.4319L48.1747 48.4307Z" fill="white"/>
</g>
<defs>
<linearGradient id="paint0_linear_41_53" x1="33.2219" y1="45.0413" x2="36.2373" y2="43.283" gradientUnits="userSpaceOnUse">
<stop stop-color="#909CA9"/>
<stop offset="1" stop-color="#EDEDEE"/>
</linearGradient>
<linearGradient id="paint1_linear_41_53" x1="33.2905" y1="11.233" x2="35.7003" y2="11.233" gradientUnits="userSpaceOnUse">
<stop stop-color="#939FAB"/>
<stop offset="1" stop-color="#DCDEE1"/>
</linearGradient>
<radialGradient id="paint2_radial_41_53" cx="0" cy="0" r="1" gradientUnits="userSpaceOnUse" gradientTransform="translate(45.4506 22.4329) rotate(-171.345) scale(3.1079 6.2965)">
<stop stop-color="#EE352C"/>
<stop offset="1" stop-color="#A91D22"/>
</radialGradient>
<clipPath id="clip0_41_53">
<rect width="75" height="76" fill="white"/>
</clipPath>
</defs>
</svg>
