<svg width="75" height="75" viewBox="0 0 75 75" fill="none" xmlns="http://www.w3.org/2000/svg">
<path d="M21.0938 32.1094C23.2812 23.3594 28.75 18.9844 37.5 18.9844C50.625 18.9844 52.2656 28.8281 58.8281 30.4687C63.2031 31.5625 67.0312 29.9219 70.3125 25.5469C68.125 34.2969 62.6562 38.6719 53.9062 38.6719C40.7812 38.6719 39.1406 28.8281 32.5781 27.1875C28.2031 26.0937 24.375 27.7344 21.0938 32.1094ZM4.6875 51.7969C6.875 43.0469 12.3438 38.6719 21.0938 38.6719C34.2188 38.6719 35.8594 48.5156 42.4219 50.1562C46.7969 51.25 50.625 49.6094 53.9062 45.2344C51.7188 53.9844 46.25 58.3594 37.5 58.3594C24.375 58.3594 22.7344 48.5156 16.1719 46.875C11.7969 45.7812 7.96875 47.4219 4.6875 51.7969Z" fill="#44A8B3"/>
</svg>
