<svg width="75" height="75" viewBox="0 0 75 75" fill="none" xmlns="http://www.w3.org/2000/svg">
<path d="M37.5 70.3125C55.6218 70.3125 70.3125 55.6218 70.3125 37.5C70.3125 19.3782 55.6218 4.6875 37.5 4.6875C19.3782 4.6875 4.6875 19.3782 4.6875 37.5C4.6875 55.6218 19.3782 70.3125 37.5 70.3125Z" fill="#028CB0"/>
<path d="M15.1298 37.5C15.1298 46.3648 20.286 54 27.7427 57.6293L17.0733 28.3973C15.7921 31.2609 15.1299 34.3629 15.1298 37.5ZM37.5 59.8702C40.098 59.8702 42.5967 59.4141 44.937 58.601L44.7783 58.3036L37.8966 39.4634L31.1934 58.958C33.1767 59.5528 35.2987 59.8702 37.5 59.8702ZM40.5738 27.0089L48.6652 51.0649L50.9062 43.6083C51.8583 40.5145 52.5919 38.2934 52.5919 36.3696C52.5919 33.5932 51.6005 31.6894 50.7675 30.2217C49.6172 28.3575 48.566 26.7909 48.566 24.9663C48.566 22.9039 50.1129 21 52.3341 21H52.6118C48.4898 17.2159 43.0955 15.1205 37.5 15.1298C33.795 15.1291 30.1481 16.0495 26.887 17.808C23.6262 19.5666 20.8534 22.1082 18.8185 25.2042L20.2464 25.2441C22.5865 25.2441 26.1959 24.9464 26.1959 24.9464C27.4254 24.8871 27.5644 26.652 26.3545 26.7909C26.3545 26.7909 25.1449 26.9496 23.7764 27.0089L31.9472 51.2433L36.8456 36.5679L33.3551 27.0089C32.5734 26.9658 31.793 26.8997 31.0151 26.8106C29.8052 26.7314 29.9442 24.8871 31.1538 24.9464C31.1538 24.9464 34.8427 25.2441 37.0439 25.2441C39.3839 25.2441 42.9933 24.9464 42.9933 24.9464C44.2031 24.8871 44.3618 26.652 43.152 26.7909C43.152 26.7909 41.9423 26.9297 40.5738 27.0089ZM48.7446 56.8359C52.1288 54.8681 54.9373 52.0467 56.8896 48.6537C58.842 45.2606 59.8697 41.4148 59.8702 37.5C59.8702 33.6129 58.8785 29.9639 57.1334 26.771C57.4877 30.2838 56.9559 33.8295 55.5865 37.0835L48.7446 56.8359ZM37.5 63.2812C30.6623 63.2812 24.1048 60.5651 19.2699 55.7302C14.435 50.8952 11.7188 44.3377 11.7188 37.5C11.7188 30.6623 14.435 24.1048 19.2699 19.2699C24.1048 14.435 30.6623 11.7188 37.5 11.7188C44.3377 11.7188 50.8952 14.435 55.7302 19.2699C60.5651 24.1048 63.2812 30.6623 63.2812 37.5C63.2812 44.3377 60.5651 50.8952 55.7302 55.7302C50.8952 60.5651 44.3377 63.2812 37.5 63.2812Z" fill="white"/>
</svg>
